<?xml version="1.0" encoding="UTF-8"?>
<!DOCTYPE svg PUBLIC "-//W3C//DTD SVG 1.1//EN" "http://www.w3.org/Graphics/SVG/1.1/DTD/svg11.dtd">
<svg version="1.2" width="16.41mm" height="10.42mm" viewBox="18034 26009 1641 1042" preserveAspectRatio="xMidYMid" fill-rule="evenodd" stroke-width="28.222" stroke-linejoin="round" xmlns="http://www.w3.org/2000/svg" xmlns:ooo="http://xml.openoffice.org/svg/export"     xml:space="preserve">
 <defs class="ClipPathGroup">
  <clipPath id="presentation_clip_path" clipPathUnits="userSpaceOnUse">
   <rect x="18034" y="26009" width="1641" height="1042"/>
  </clipPath>
 </defs>
 <defs class="TextShapeIndex">
  <g ooo:slide="id1" ooo:id-list="id3"/>
 </defs>
 <defs class="EmbeddedBulletChars">
  <g id="bullet-char-template(57356)" transform="scale(0.00048828125,-0.00048828125)">
   <path d="M 580,1141 L 1163,571 580,0 -4,571 580,1141 Z"/>
  </g>
  <g id="bullet-char-template(57354)" transform="scale(0.00048828125,-0.00048828125)">
   <path d="M 8,1128 L 1137,1128 1137,0 8,0 8,1128 Z"/>
  </g>
  <g id="bullet-char-template(10146)" transform="scale(0.00048828125,-0.00048828125)">
   <path d="M 174,0 L 602,739 174,1481 1456,739 174,0 Z M 1358,739 L 309,1346 659,739 1358,739 Z"/>
  </g>
  <g id="bullet-char-template(10132)" transform="scale(0.00048828125,-0.00048828125)">
   <path d="M 2015,739 L 1276,0 717,0 1260,543 174,543 174,936 1260,936 717,1481 1274,1481 2015,739 Z"/>
  </g>
  <g id="bullet-char-template(10007)" transform="scale(0.00048828125,-0.00048828125)">
   <path d="M 0,-2 C -7,14 -16,27 -25,37 L 356,567 C 262,823 215,952 215,954 215,979 228,992 255,992 264,992 276,990 289,987 310,991 331,999 354,1012 L 381,999 492,748 772,1049 836,1024 860,1049 C 881,1039 901,1025 922,1006 886,937 835,863 770,784 769,783 710,716 594,584 L 774,223 C 774,196 753,168 711,139 L 727,119 C 717,90 699,76 672,76 641,76 570,178 457,381 L 164,-76 C 142,-110 111,-127 72,-127 30,-127 9,-110 8,-76 1,-67 -2,-52 -2,-32 -2,-23 -1,-13 0,-2 Z"/>
  </g>
  <g id="bullet-char-template(10004)" transform="scale(0.00048828125,-0.00048828125)">
   <path d="M 285,-33 C 182,-33 111,30 74,156 52,228 41,333 41,471 41,549 55,616 82,672 116,743 169,778 240,778 293,778 328,747 346,684 L 369,508 C 377,444 397,411 428,410 L 1163,1116 C 1174,1127 1196,1133 1229,1133 1271,1133 1292,1118 1292,1087 L 1292,965 C 1292,929 1282,901 1262,881 L 442,47 C 390,-6 338,-33 285,-33 Z"/>
  </g>
  <g id="bullet-char-template(9679)" transform="scale(0.00048828125,-0.00048828125)">
   <path d="M 813,0 C 632,0 489,54 383,161 276,268 223,411 223,592 223,773 276,916 383,1023 489,1130 632,1184 813,1184 992,1184 1136,1130 1245,1023 1353,916 1407,772 1407,592 1407,412 1353,268 1245,161 1136,54 992,0 813,0 Z"/>
  </g>
  <g id="bullet-char-template(8226)" transform="scale(0.00048828125,-0.00048828125)">
   <path d="M 346,457 C 273,457 209,483 155,535 101,586 74,649 74,723 74,796 101,859 155,911 209,963 273,989 346,989 419,989 480,963 531,910 582,859 608,796 608,723 608,648 583,586 532,535 482,483 420,457 346,457 Z"/>
  </g>
  <g id="bullet-char-template(8211)" transform="scale(0.00048828125,-0.00048828125)">
   <path d="M -4,459 L 1135,459 1135,606 -4,606 -4,459 Z"/>
  </g>
 </defs>
 <defs class="TextEmbeddedBitmaps"/>
 <g class="SlideGroup">
  <g>
   <g id="id1" class="Slide" clip-path="url(#presentation_clip_path)">
    <g class="Page">
     <g class="com.sun.star.drawing.ClosedBezierShape">
      <g id="id3">
       <rect class="BoundingBox" stroke="none" fill="none" x="18034" y="26009" width="1643" height="1043"/>
       <path fill="rgb(0,0,0)" stroke="none" d="M 19675,26984 L 19675,26076 C 19675,26039 19645,26009 19608,26009 L 18101,26009 C 18064,26009 18034,26039 18034,26076 L 18034,26984 C 18034,27021 18064,27051 18101,27051 L 19608,27051 C 19645,27051 19675,27021 19675,26984 Z M 19675,26984 L 19675,26984 Z M 19459,26527 C 19459,26601 19430,26668 19381,26716 19333,26765 19266,26795 19192,26795 19186,26795 19181,26795 19176,26795 L 18547,26795 18541,26795 C 18540,26795 18539,26795 18538,26795 18467,26792 18403,26762 18356,26715 18308,26667 18278,26600 18278,26525 18278,26451 18308,26384 18356,26335 18405,26287 18473,26256 18547,26256 18621,26256 18688,26287 18737,26335 18785,26384 18815,26451 18815,26525 18815,26600 18785,26667 18737,26715 18731,26721 18726,26726 18720,26730 L 19018,26730 C 19013,26726 19008,26721 19003,26716 18955,26668 18925,26601 18925,26527 18925,26453 18955,26386 19003,26338 19051,26290 19118,26259 19192,26259 19266,26259 19333,26290 19381,26338 19430,26386 19459,26453 19459,26527 Z M 19459,26527 L 19459,26527 Z M 19336,26671 C 19373,26635 19396,26584 19396,26527 19396,26471 19373,26420 19336,26383 19300,26346 19248,26323 19192,26323 19136,26323 19085,26346 19048,26383 19011,26420 18988,26471 18988,26527 18988,26584 19011,26635 19048,26671 19082,26705 19127,26727 19178,26730 L 19199,26730 C 19200,26730 19201,26731 19202,26731 19254,26728 19302,26706 19336,26671 Z M 19336,26671 L 19336,26671 Z M 19326,26525 C 19326,26563 19311,26597 19287,26621 19262,26645 19228,26660 19191,26660 19154,26660 19121,26645 19096,26621 19096,26620 19095,26620 19095,26619 19071,26595 19057,26562 19057,26525 19057,26488 19072,26455 19097,26430 L 19096,26430 C 19121,26406 19154,26391 19191,26391 19228,26391 19262,26406 19287,26430 19288,26431 19288,26432 19289,26432 19312,26456 19326,26489 19326,26525 Z M 19326,26525 L 19326,26525 Z M 19241,26576 C 19254,26563 19262,26546 19262,26525 19262,26506 19255,26489 19243,26476 19242,26476 19242,26476 19241,26475 19228,26462 19211,26454 19191,26454 19172,26454 19154,26462 19141,26475 19129,26488 19121,26505 19121,26525 19121,26545 19128,26562 19140,26575 L 19141,26576 C 19154,26589 19172,26597 19191,26597 19211,26597 19228,26589 19241,26576 Z M 19241,26576 L 19241,26576 Z M 18692,26671 C 18729,26633 18752,26582 18752,26525 18752,26468 18729,26417 18692,26380 18655,26343 18603,26320 18547,26320 18490,26320 18438,26343 18401,26380 18364,26417 18341,26468 18341,26525 18341,26582 18364,26633 18401,26671 18438,26708 18490,26730 18547,26730 18603,26730 18655,26708 18692,26671 Z M 18692,26671 L 18692,26671 Z M 18682,26525 C 18682,26563 18667,26597 18642,26621 18618,26645 18584,26660 18548,26660 18511,26660 18477,26645 18453,26621 18427,26597 18412,26563 18412,26525 18412,26488 18427,26455 18453,26430 18453,26430 18454,26429 18455,26428 18479,26405 18512,26391 18548,26391 18584,26391 18618,26406 18642,26430 18667,26455 18682,26488 18682,26525 Z M 18682,26525 L 18682,26525 Z M 18598,26576 C 18610,26563 18618,26546 18618,26525 18618,26506 18610,26488 18598,26475 18585,26462 18567,26454 18548,26454 18529,26454 18512,26462 18499,26474 18498,26474 18498,26475 18498,26475 18485,26488 18477,26506 18477,26525 18477,26546 18485,26563 18498,26576 18510,26589 18528,26597 18548,26597 18567,26597 18585,26589 18598,26576 Z"/>
      </g>
     </g>
    </g>
   </g>
  </g>
 </g>
</svg>
