<?xml version="1.0" encoding="UTF-8"?>
<!DOCTYPE svg PUBLIC "-//W3C//DTD SVG 1.1//EN" "http://www.w3.org/Graphics/SVG/1.1/DTD/svg11.dtd">
<svg version="1.2" width="25.02mm" height="25.02mm" viewBox="4000 1700 2502 2502" preserveAspectRatio="xMidYMid" fill-rule="evenodd" stroke-width="28.222" stroke-linejoin="round" xmlns="http://www.w3.org/2000/svg" xmlns:ooo="http://xml.openoffice.org/svg/export" xmlns:xlink="http://www.w3.org/1999/xlink" xmlns:presentation="http://sun.com/xmlns/staroffice/presentation" xmlns:smil="http://www.w3.org/2001/SMIL20/" xmlns:anim="urn:oasis:names:tc:opendocument:xmlns:animation:1.0" xml:space="preserve">
 <defs class="EmbeddedBulletChars">
  <g id="bullet-char-template-57356" transform="scale(0.00048828125,-0.00048828125)">
   <path d="M 580,1141 L 1163,571 580,0 -4,571 580,1141 Z"/>
  </g>
   <g id="bullet-char-template-57354" transform="scale(0.00048828125,-0.00048828125)">
   <path d="M 8,1128 L 1137,1128 1137,0 8,0 8,1128 Z"/>
  </g>
   <g id="bullet-char-template-10146" transform="scale(0.00048828125,-0.00048828125)">
   <path d="M 174,0 L 602,739 174,1481 1456,739 174,0 Z M 1358,739 L 309,1346 659,739 1358,739 Z"/>
  </g>
   <g id="bullet-char-template-10132" transform="scale(0.00048828125,-0.00048828125)">
   <path d="M 2015,739 L 1276,0 717,0 1260,543 174,543 174,936 1260,936 717,1481 1274,1481 2015,739 Z"/>
  </g>
   <g id="bullet-char-template-10007" transform="scale(0.00048828125,-0.00048828125)">
   <path d="M 0,-2 C -7,14 -16,27 -25,37 L 356,567 C 262,823 215,952 215,954 215,979 228,992 255,992 264,992 276,990 289,987 310,991 331,999 354,1012 L 381,999 492,748 772,1049 836,1024 860,1049 C 881,1039 901,1025 922,1006 886,937 835,863 770,784 769,783 710,716 594,584 L 774,223 C 774,196 753,168 711,139 L 727,119 C 717,90 699,76 672,76 641,76 570,178 457,381 L 164,-76 C 142,-110 111,-127 72,-127 30,-127 9,-110 8,-76 1,-67 -2,-52 -2,-32 -2,-23 -1,-13 0,-2 Z"/>
  </g>
   <g id="bullet-char-template-10004" transform="scale(0.00048828125,-0.00048828125)">
   <path d="M 285,-33 C 182,-33 111,30 74,156 52,228 41,333 41,471 41,549 55,616 82,672 116,743 169,778 240,778 293,778 328,747 346,684 L 369,508 C 377,444 397,411 428,410 L 1163,1116 C 1174,1127 1196,1133 1229,1133 1271,1133 1292,1118 1292,1087 L 1292,965 C 1292,929 1282,901 1262,881 L 442,47 C 390,-6 338,-33 285,-33 Z"/>
  </g>
   <g id="bullet-char-template-9679" transform="scale(0.00048828125,-0.00048828125)">
   <path d="M 813,0 C 632,0 489,54 383,161 276,268 223,411 223,592 223,773 276,916 383,1023 489,1130 632,1184 813,1184 992,1184 1136,1130 1245,1023 1353,916 1407,772 1407,592 1407,412 1353,268 1245,161 1136,54 992,0 813,0 Z"/>
  </g>
   <g id="bullet-char-template-8226" transform="scale(0.00048828125,-0.00048828125)">
   <path d="M 346,457 C 273,457 209,483 155,535 101,586 74,649 74,723 74,796 101,859 155,911 209,963 273,989 346,989 419,989 480,963 531,910 582,859 608,796 608,723 608,648 583,586 532,535 482,483 420,457 346,457 Z"/>
  </g>
   <g id="bullet-char-template-8211" transform="scale(0.00048828125,-0.00048828125)">
   <path d="M -4,459 L 1135,459 1135,606 -4,606 -4,459 Z"/>
  </g>
   <g id="bullet-char-template-61548" transform="scale(0.00048828125,-0.00048828125)">
   <path d="M 173,740 C 173,903 231,1043 346,1159 462,1274 601,1332 765,1332 928,1332 1067,1274 1183,1159 1299,1043 1357,903 1357,740 1357,577 1299,437 1183,322 1067,206 928,148 765,148 601,148 462,206 346,322 231,437 173,577 173,740 Z"/>
  </g>
 </defs>
  <g class="Page">
  <g class="Group">
   <g class="com.sun.star.drawing.PolyPolygonShape">
    <g id="id3">
     <rect class="BoundingBox" stroke="none" fill="none" x="4000" y="1700" width="2502" height="2502"/>
    </g>
   </g>
    <g class="com.sun.star.drawing.ClosedBezierShape">
    <g id="id4">
     <rect class="BoundingBox" stroke="none" fill="none" x="4000" y="1904" width="2502" height="2098"/>
      <path fill="#2980B9" stroke="none" d="M 6501,2042 L 6501,2252 6172,2576 C 6173,2585 6174,2594 6174,2603 6174,2699 6096,2776 6001,2776 5905,2776 5828,2699 5828,2603 5828,2598 5828,2593 5828,2587 L 5354,2223 C 5327,2241 5295,2251 5260,2251 5232,2251 5206,2244 5183,2233 L 4668,2794 C 4673,2809 4675,2824 4675,2841 4675,2936 4597,3015 4502,3015 4419,3015 4350,2957 4333,2878 L 4000,2745 4000,2584 4368,2731 C 4400,2692 4448,2668 4502,2668 4525,2668 4548,2672 4569,2681 L 5090,2113 C 5087,2102 5086,2090 5086,2078 5086,1982 5164,1905 5260,1905 5356,1905 5433,1982 5433,2078 5433,2084 5433,2090 5433,2095 L 5906,2458 C 5933,2440 5966,2430 6001,2430 6031,2430 6060,2438 6085,2452 L 6501,2042 Z M 6501,2042 L 6501,2042 Z M 5822,2985 L 6205,2985 C 6244,2985 6277,3017 6277,3057 6277,3347 6277,3638 6277,3929 6277,3968 6244,4001 6205,4001 L 5822,4001 C 5782,4001 5750,3968 5750,3929 5750,3638 5750,3347 5750,3057 5750,3017 5782,2985 5822,2985 Z M 5822,2985 L 5822,2985 Z M 5062,2709 L 5445,2709 C 5485,2709 5517,2741 5517,2781 5517,3164 5517,3546 5517,3929 5517,3968 5485,4001 5445,4001 L 5062,4001 C 5022,4001 4990,3968 4990,3929 4990,3546 4990,3164 4990,2781 4990,2741 5022,2709 5062,2709 Z M 5062,2709 L 5062,2709 Z M 4308,3249 L 4690,3249 C 4730,3249 4762,3282 4762,3321 L 4762,3929 C 4762,3968 4730,4001 4690,4001 L 4308,4001 C 4268,4001 4236,3968 4236,3929 L 4236,3321 C 4236,3282 4268,3249 4308,3249 Z"/>
    </g>
   </g>
  </g>
 </g>
</svg>
