<?xml version="1.0" encoding="UTF-8"?>
<!DOCTYPE svg PUBLIC "-//W3C//DTD SVG 1.1//EN" "http://www.w3.org/Graphics/SVG/1.1/DTD/svg11.dtd">
<!-- Creator: CorelDRAW X8 -->
<svg xmlns="http://www.w3.org/2000/svg" xml:space="preserve" width="21.1667mm" height="21.1667mm" version="1.1" style="shape-rendering:geometricPrecision; text-rendering:geometricPrecision; image-rendering:optimizeQuality; fill-rule:evenodd; clip-rule:evenodd"
viewBox="0 0 338 338"
 xmlns:xlink="http://www.w3.org/1999/xlink">
 <defs>
  <style type="text/css">
   <![CDATA[
    .fil0 {fill:none}
    .fil1 {fill:#027381}
   ]]>
  </style>
 </defs>
 <g id="Layer_x0020_1">
  <metadata id="CorelCorpID_0Corel-Layer"/>
  <g id="_609982768">
   <polygon class="fil0" points="0,338 338,338 338,0 0,0 "/>
   <path class="fil1" d="M325 172c0,-2 -1,-4 -3,-4l-148 0 0 -151c0,-2 -2,-4 -4,-4 -2,0 -3,2 -3,4l0 151 -149 0c-2,0 -4,2 -4,4 0,1 2,3 4,3l149 0 0 146c0,2 1,4 3,4 2,0 4,-2 4,-4l0 -146 148 0c2,0 3,-2 3,-3zm-6 -128c2,-3 -1,-6 -3,-7 -2,-2 -7,-3 -9,-1l-33 55 -5 21 17 -13 33 -55zm-96 68c-2,1 -3,2 -2,4 0,2 2,3 4,2l27 -9c2,-1 3,-3 2,-4 0,-2 -2,-3 -4,-3l-27 10zm42 -32l-49 17c-1,1 -2,2 -2,4 1,2 3,3 4,2l49 -17c2,0 2,-2 2,-4 -1,-1 -3,-2 -4,-2zm-11 -23c2,0 3,-2 2,-4 0,-2 -2,-3 -4,-2l-48 17c-2,0 -3,2 -2,4 0,2 2,3 4,2l48 -17zm5 9l-49 16c-2,1 -3,3 -2,5 1,1 2,2 4,2l49 -17c1,-1 2,-3 2,-4 -1,-2 -3,-3 -4,-2zm15 13l4 -7 -18 -41c-1,-2 -3,-2 -5,-2l-72 23c-2,1 -3,3 -2,4 0,1 0,1 0,1l0 0 44 97c1,1 2,2 4,1l72 -23c2,0 3,-2 2,-4 0,0 0,0 0,0l0 0 -11 -26 -1 0c0,1 0,1 -1,2l-4 2 10 21 -66 21 -41 -91 66 -21 19 43zm-123 -15c2,-10 2,-19 -1,-23 -11,-11 -29,3 -36,9 -1,1 -2,2 -3,3 0,0 0,0 0,0 -2,1 -3,3 -5,4 1,-1 2,-3 2,-5 1,-1 0,-3 -2,-4 -1,-1 -3,0 -4,2 -2,6 -7,12 -12,17 -2,3 -4,5 -6,8 -2,-3 -4,-5 -6,-8 -5,-5 -10,-11 -12,-17 -1,-2 -3,-3 -4,-2 -2,1 -3,3 -2,4 0,2 1,4 2,5 -2,-1 -3,-3 -5,-4 0,0 0,0 0,0 -1,-1 -2,-2 -3,-3 -7,-6 -25,-20 -36,-9 -3,4 -3,13 -1,23 1,9 5,19 9,24 1,2 2,3 4,4 -1,0 -2,1 -3,2 -4,3 -6,7 -7,13 0,0 0,1 0,1l0 1c1,7 6,15 12,20 7,6 14,10 20,10 1,0 1,0 1,0 1,0 2,0 3,-1 6,-1 14,-8 20,-15 1,-1 2,-3 3,-4 0,8 3,15 5,15 2,0 5,-8 5,-15 1,1 2,3 3,4 6,7 14,14 20,15 1,1 2,1 3,1 0,0 0,0 1,0 6,0 13,-4 20,-10 6,-5 11,-13 11,-20l1 -1c0,0 0,-1 0,-1 -1,-6 -3,-10 -7,-13 -1,-1 -2,-2 -3,-2 2,-1 3,-2 4,-4 4,-5 8,-15 9,-24zm-74 24l0 0c0,0 0,0 0,1 -2,1 -9,1 -17,0l-1 0 0 0 0 0 0 0 -1 0 0 0 0 0 0 0 0 0 -1 0 0 0 0 -1 0 0 -1 0 0 0 0 0 0 0 0 0 0 0 0 0 0 0 0 0 -1 0 0 0 0 0 0 0 0 0 0 0 0 0 0 0 0 0 0 0 -1 0 0 0 0 0 0 0 0 0 0 0 0 0 0 0 0 0 0 0 0 0 -1 0 0 0 0 0 0 0 0 0 0 0 0 0 0 0 0 0 0 0 0 0 0 0 0 0 0 0 -1 0 0 0 0 0 0 0 0 0 0 0 0 0 0 0 0 0 0 0 0 0 0 0 0 0 0 0 0 0 -1 0 0 0 0 0 0 0 0 0 0 0 0 0 0 0 0 0 0 0 0 0 0 0 0 0 0 0 0 0 -1 0 0 0 0 0 0 0 0 0 0 0 0 0 0 0 -1 0 0 0 0 0 0 0 0 0 0 0 0 0 0 0 -1 0 0 0 0 0 0 0 0 0 0 0 0 0 0 0 0 0 -1 0 0 0 0 0 0 0 0 0 0 0 0 0 -1 0 0 0 0 0 0 0 0 0 0 0 0 0 0 0 0 0 0 0 0 0 0 0 -1 0 0 0 0 0 0 0 0 0 0 0 0 0 0 0 0 0 0 0 0 0 -1 0 0 0 0 0 0 0 0 0 0 0 0 0 0 0 0 -1 0 0 0 0 0 0 0 0 0 0 -1 0 0 0 0 0 0 0 0 0 0 0 0 0 0 0 0 0 0 0 0 0 0 0 0 0 0 0 -1 0 0 0 0 0 0 0 0 0 0 0 0 0 0 0 0 0 0 0 0 0 0 0 0 0 0 0 0 0 0 0 0 0 0 0 -1 0 0 0 0 0 0 0 0 0 0 0 0 0 0 0 0 0 0 0 0 0 0 0 0 0 0 0 0 0 0 0 0 0 0 0 0 0 0 0 0 0 0 0 0 0 0 0 -1 0 0 0 0 0 0 0 0 0 0 0 0 0 0 0 0 0 0 0 0 0 0 0 0 0 0 0 0 0 0 0 0 0 0 0 0 0 0 0 0 0 0 0 0 0 0 0 0 0 0 0 -1 0 0 0 0 0 0 0c-4,0 -6,0 -8,-3 -4,-4 -6,-13 -8,-21 -1,-8 -2,-15 0,-17 6,-8 21,4 27,9 1,1 2,2 2,2 1,1 1,1 1,1 4,4 11,9 17,16 4,5 7,10 7,14zm3 13c0,5 -4,12 -9,18 -6,6 -12,12 -17,13 0,0 -1,0 -1,0 0,0 -1,0 -1,0 -4,0 -10,-3 -15,-7 -5,-5 -10,-11 -10,-17l0 0c0,0 0,-1 0,-1 0,-4 2,-6 4,-8 3,-3 6,-4 8,-5l1 0 0 0 0 0 0 0 0 0 0 0 0 0 0 0 0 0 0 0 0 0 0 0 0 0 0 0 0 0 0 0 0 0 0 0 0 0 0 0 0 0 0 0 0 0 0 0 0 0 0 0 0 0 1 0 0 0 0 0 0 0 0 0 0 0 0 0 0 0 0 0 0 0 0 0 0 0 0 0 0 0 0 0 0 0 0 0 0 0 0 0 0 0 0 0 0 0 0 0 0 0 0 0 1 0 0 0 0 0 0 0 0 0 0 0 0 0 0 0 0 0 0 0 0 0 0 0 0 0 0 0 0 0 0 0 0 0 1 0 0 0 0 0 0 0 0 0 0 0 0 0 0 0 0 0 0 0 0 0 0 0 0 0 1 0 0 0 0 0 0 0 0 0 0 0 0 0 0 0 0 0 0 0 1 0 0 0 0 0 0 0 0 0 0 0 0 0 0 0 0 0 0 0 0 0 1 0 0 0 0 0 0 0 0 0 0 0 0 0 0 0 0 0 0 0 1 0 0 0 0 0 0 0 0 0 0 0 0 0 0 0 0 0 0 0 1 0 0 0 0 0 0 0 0 0 0 0 1 0 0 0 0 0 0 0 0 0 1 0 0 0 0 0 0 0 0 0 0 0 0 0 0 0 1 0 0 0 0 0 0 0 0 1 0 0 0 0 0 0 0 0 1 0 0 0 0 0 0 0 0 0 0 0 0 0 0 0 0 0 0 0 1 0 0 0 0 0 0 0 0 0 0 0 0 0 0 0 0 0 0 0 0 0 0 0 0 0 0 0 1 0 0 0 0 0 0 0 0 0 0 0 0 0 0 0 0 0 0 0 0 0 0 0 0 0 0 0 1 0 0 0 0 0 0 0 0 0 0 0 0 0 0 0 0 0 0 0 0 0 0 0 0 0 0 0 0 0 0 0 1 0 0 0 0 0 0 0 0 0 0 0 0 0 1 0 0 0 0 0 0 0 1 0 0 0 0 0 1 0 0 0 0 0 0 0 1 0 0 0 0 0 0 0 0 0 1 0 0 0 0 0 0 0c7,1 12,1 16,0 0,3 1,5 3,6zm11 -6c4,1 10,1 17,0l0 0 0 0 1 0 0 0 1 0 0 0 0 0 0 0 1 0 0 0 0 0 0 0 0 0 1 0 0 0 0 0 0 0 0 0 1 0 0 0 0 0 0 0 0 0 0 0 0 0 0 0 0 0 0 0 0 0 0 0 0 0 0 0 0 0 0 0 0 0 1 0 0 0 0 0 0 0 0 0 0 0 0 0 0 0 0 0 0 0 0 0 0 0 0 0 0 0 0 0 1 0 0 0 0 0 0 0 0 0 0 0 0 0 0 0 0 0 0 0 0 0 0 0 1 0 0 0 0 0 0 0 0 0 0 0 0 0 0 0 0 0 0 0 0 0 1 0 0 0 0 0 0 0 0 0 0 -1 0 0 0 0 0 0 1 0 0 0 0 0 0 0 0 0 0 0 0 0 1 0 0 0 0 0 0 0 0 0 1 0 0 0 0 0 0 0 0 0 0 0 0 0 1 0 0 0 0 0 0 0 0 0 0 0 0 0 0 0 1 0 0 0 0 0 0 0 0 0 0 0 0 0 0 0 0 0 0 0 1 0 0 0 0 0 0 0 0 0 0 0 0 0 0 0 0 0 0 0 1 0 0 0 0 0 0 0 0 0 0 0 0 0 0 0 0 0 0 0 0 0 1 0 0 0 0 0 0 0 0 0 0 0 0 0 0 0 0 0 0 0 0 0 0 0 0 0 1 0 0 0 0 0 0 0 0 0 0 0 0 0 0 0 0 0 0 0 0 0 0 0 0 0 0 0 0 0 0 0 0 0 0 0 1 0 0 0 0 0 0 0 0 0 0 0 0 0 0 0 0 0 0 0 0 0 0 0 0 0 0 0 0 0 0 0 0 0 0 0 0 0 1 0 0 0 0 0 0 0 0 0 0 0 0 0 0 0 0 0 0 0 0 0 0 0 0 0 1 0c2,1 5,2 8,5 2,2 4,4 4,8 0,0 0,1 0,1l0 0c0,6 -5,12 -10,17 -5,4 -11,7 -15,7 0,0 -1,0 -1,0 0,0 -1,0 -1,0 -5,-1 -12,-7 -17,-13 -5,-6 -9,-13 -9,-18 2,-2 2,-3 3,-6zm54 -32c-2,8 -5,17 -8,21 -2,3 -4,3 -8,3l0 0 0 0 0 0 -1 0 0 0 0 0 0 0 0 0 0 0 0 0 0 0 0 0 0 0 0 0 0 0 0 0 0 0 0 0 0 0 0 0 0 0 0 0 0 0 0 0 0 0 0 0 0 0 0 0 -1 0 0 0 0 0 0 0 0 0 0 0 0 0 0 0 0 0 0 0 0 0 0 0 0 0 0 0 0 0 0 0 0 0 0 0 0 0 0 0 0 0 0 0 0 0 0 0 -1 0 0 0 0 0 0 0 0 0 0 0 0 0 0 0 0 0 0 0 0 0 0 0 0 0 0 0 0 0 0 0 0 0 0 0 0 0 0 0 -1 0 0 0 0 0 0 0 0 0 0 0 0 0 0 0 0 0 0 0 0 0 0 0 0 0 -1 0 0 0 0 0 0 0 0 0 0 0 0 1 0 0 0 0 0 0 0 0 0 0 0 0 0 0 0 0 -1 0 0 0 0 0 0 0 0 0 0 0 0 0 0 0 0 0 0 0 0 0 -1 0 0 0 0 0 0 0 0 0 0 0 0 0 0 0 0 0 0 0 0 0 0 0 0 0 -1 0 0 0 0 0 0 0 0 0 0 0 0 0 -1 0 0 0 0 0 0 0 0 0 0 0 0 0 0 0 0 0 -1 0 0 0 0 0 0 0 0 0 0 0 0 0 0 0 -1 0 0 0 0 0 0 0 0 0 0 0 0 0 -1 0 0 0 0 0 0 0 0 0 0 0 0 0 0 0 0 0 0 0 0 0 0 0 0 0 0 0 0 0 0 0 0 0 -1 0 0 0 0 0 0 0 0 0 0 0 0 0 0 0 0 0 0 0 0 0 0 0 0 0 0 0 0 0 0 0 0 0 -1 0 0 0 0 0 0 0 0 0 0 0 0 0 0 0 0 0 0 0 0 0 0 0 -1 0 0 0 0 0 0 0 0 0 0 0 0 0 0 0 0 0 0 0 0 0 0 0 0 0 -1 0 0 0 0 0 0 0 0 0 0 0 0 0 0 0 0 0 0 0 -1 0 0 0 0 0 0 0 0 0 0 0 0 0 -1 0 0 0 0 1 0 0 -1 0 0 0 0 0 0 0 0 0 -1 0 0 0 0 0 0 0 -1 0c-8,1 -15,1 -17,0 -1,-4 2,-10 7,-15 6,-7 13,-12 17,-16 0,0 0,0 1,-1 0,0 1,-1 2,-2 6,-5 20,-17 27,-9 2,2 1,9 0,17zm-126 214c7,10 19,14 27,9 1,-1 2,-2 2,-2l28 -26 6 2 -9 7c0,0 -1,0 -2,1 -7,6 -6,18 1,28 8,10 20,13 28,7 1,-1 1,-2 2,-3l47 -50c0,0 0,0 0,0 5,-4 5,-13 -1,-20 -5,-6 -13,-8 -18,-5l0 0 0 0c0,0 0,0 -1,1l0 0 -10 7 -16 -4c0,-3 -1,-7 -3,-10 -5,-7 -12,-10 -18,-7l0 0 0 0c0,0 -1,1 -1,1l0 0 -58 35c-1,1 -2,1 -2,2 -8,5 -8,17 -2,27zm75 1c6,7 6,15 1,19 -5,4 -13,2 -18,-5 -6,-7 -6,-14 -1,-19 5,-4 13,-2 18,5zm-69 -23c5,-4 13,-1 18,6 5,8 4,16 -1,19 -6,4 -13,1 -18,-6 -5,-7 -5,-15 1,-19zm205 39c-3,4 -6,8 -9,11 -4,3 -9,5 -14,6 -1,0 -2,1 -2,2 -1,2 0,4 2,4 9,4 18,4 26,0 7,-3 14,-9 19,-17 0,0 0,0 1,0 1,0 3,0 4,0 16,0 31,-6 42,-17 11,-10 18,-24 18,-40 0,-16 -7,-30 -18,-40 -11,-11 -26,-17 -42,-17 -17,0 -32,6 -43,17 -11,10 -18,24 -18,40 0,12 4,23 10,32 6,8 14,15 24,19zm-19 -23c-5,-8 -8,-18 -8,-28 0,-14 6,-27 15,-36 10,-9 24,-15 39,-15 15,0 28,6 38,15 10,9 16,22 16,36 0,14 -6,27 -16,36 -10,9 -23,15 -38,15 -2,0 -3,-1 -4,-1 -1,0 -2,0 -3,0 -1,0 -3,1 -3,2 -4,8 -10,13 -17,16 -3,2 -6,2 -10,2 2,-1 3,-2 5,-3 5,-4 9,-10 12,-16 1,-2 0,-4 -1,-4 0,0 -1,0 -1,-1 -9,-3 -18,-10 -24,-18zm26 -51c-2,3 -3,6 -3,9 0,1 1,2 2,3 1,2 3,2 5,2 2,0 4,-2 5,-5 1,-3 3,-5 4,-7 2,-2 4,-2 7,-2 3,0 5,0 7,2 1,2 2,4 2,6 0,1 0,2 -1,3 0,1 -1,2 -2,3 0,1 -2,2 -4,4 -2,2 -4,3 -5,4 -2,2 -3,3 -3,5 -1,2 -1,4 -1,6 0,2 0,4 1,5 1,1 2,1 4,1 3,0 5,-1 6,-4 0,-2 0,-3 0,-3 1,-1 1,-1 1,-2 0,0 1,-1 1,-2 1,0 2,-1 3,-2 3,-3 7,-6 8,-7 2,-1 3,-3 4,-5 1,-2 1,-4 1,-6 0,-3 0,-6 -2,-9 -2,-3 -6,-5 -9,-6 -3,-2 -7,-3 -11,-3 -4,0 -8,1 -12,3 -3,2 -6,4 -8,7zm14 45c-2,1 -2,3 -2,5 0,2 0,3 2,5 1,1 3,1 4,1 2,0 4,0 5,-1 1,-2 2,-3 2,-5 0,-2 -1,-4 -2,-5 -1,-1 -3,-2 -5,-2 -1,0 -3,1 -4,2z"/>
  </g>
 </g>
</svg>

