<?xml version="1.0" encoding="UTF-8"?>
<!DOCTYPE svg PUBLIC "-//W3C//DTD SVG 1.1//EN" "http://www.w3.org/Graphics/SVG/1.1/DTD/svg11.dtd">
<svg xmlns="http://www.w3.org/2000/svg" xml:space="preserve" width="21.1667mm" height="21.1666mm" version="1.1" style="shape-rendering:geometricPrecision; text-rendering:geometricPrecision; image-rendering:optimizeQuality; fill-rule:evenodd; clip-rule:evenodd"
viewBox="0 0 2567 2567"
 >
 <defs>
  <style type="text/css">
   <![CDATA[
    .fil0 {fill:none}
    .fil1 {fill:#2980B9}
   ]]>
  </style>
 </defs>
 <g id="Layer_x0020_1">
  <metadata id="CorelCorpID_0Corel-Layer"/>
  <g id="_1027357856">
   <polygon class="fil0" points="0,2567 2567,2567 2567,0 0,0 "/>
   <path class="fil1" d="M2396 1358l0 -1 -609 -351c-1,-1 -3,-1 -5,-1 -4,-1 -11,4 -20,13l-188 -108 13 -52c3,-4 5,-9 7,-13 85,-166 -52,-406 -307,-536 -52,-27 -105,-47 -157,-61 -201,-52 -389,-8 -457,124l0 0 -76 147 0 0 0 1c-85,166 57,408 307,536 75,39 152,64 226,76 172,27 325,-15 391,-120l184 106c-5,17 -6,29 -4,31 2,1 3,1 6,3 291,167 321,186 606,350 5,2 34,-24 57,-63 23,-40 34,-76 26,-81zm-847 -535c-60,117 -233,153 -419,100 -44,-12 -89,-30 -133,-53 -231,-118 -358,-331 -284,-476 60,-117 232,-154 417,-102 45,13 91,31 136,54 231,118 358,332 283,477zm-33 -127c-7,-54 -37,-111 -85,-163 -46,-51 -108,-98 -182,-136l-1 0c-39,-21 -79,-37 -118,-49 -59,-18 -116,-26 -168,-24 -89,3 -161,36 -197,103 -1,2 -2,3 -2,5 -10,19 -16,40 -18,62l0 0c-3,23 -1,47 4,71 3,13 16,22 30,19 13,-3 21,-16 19,-29 -5,-19 -6,-38 -4,-55l0 -1c2,-16 6,-32 14,-47l0 0c26,-51 84,-77 156,-79 50,-2 107,8 166,27 32,11 64,24 96,41l0 0c69,35 127,78 169,125 41,45 66,92 73,137 1,14 14,23 27,21 14,-2 23,-14 21,-28zm-427 895l-266 188c-12,8 -14,24 -6,35 8,11 23,14 34,6l266 -188c11,-8 14,-23 6,-35 -8,-11 -23,-13 -34,-6zm119 -238l-472 333c-12,8 -14,24 -6,35 8,11 23,14 34,6l472 -333c11,-8 14,-24 6,-35 -8,-11 -23,-14 -34,-6zm-100 -87l-472 334c-11,8 -14,23 -6,34 8,11 24,14 35,6l472 -333c11,-8 14,-23 6,-34 -8,-12 -24,-14 -35,-7zm-609 210l469 -332c-18,-6 -36,-14 -53,-22l-444 313c-12,8 -14,24 -6,35 7,11 23,14 34,6zm537 -294l-472 333c-11,8 -13,24 -6,35 8,11 24,14 35,6l472 -333c11,-8 14,-24 6,-35 -8,-11 -23,-14 -35,-6zm-259 -144l-524 355c-11,8 -15,23 -7,35l761 719c9,8 22,8 31,2l0 0 691 -467c12,-8 15,-24 7,-35l-479 -453c-24,1 -48,1 -74,-1l493 465 -649 439 -721 -680 514 -348c-14,-10 -29,-20 -43,-31zm-530 484c-9,9 -9,25 1,35l758 714c8,8 21,9 31,3l0 0 691 -468c11,-7 14,-23 7,-34 -8,-11 -24,-14 -35,-7l-675 457 -743 -702c-10,-9 -26,-8 -35,2zm-4 118c-9,10 -9,26 1,35l758 715c9,8 21,9 31,2l0 0 691 -467c11,-8 14,-23 7,-35 -8,-11 -23,-14 -35,-6l-674 456 -744 -701c-10,-10 -25,-9 -35,1z"/>
  </g>
 </g>
</svg>
