<?xml version="1.0" encoding="UTF-8"?>
<!DOCTYPE svg PUBLIC "-//W3C//DTD SVG 1.1//EN" "http://www.w3.org/Graphics/SVG/1.1/DTD/svg11.dtd">
<!-- Creator: CorelDRAW X8 -->
<svg xmlns="http://www.w3.org/2000/svg" xml:space="preserve" width="21.1667mm" height="21.1668mm" version="1.1" style="shape-rendering:geometricPrecision; text-rendering:geometricPrecision; image-rendering:optimizeQuality; fill-rule:evenodd; clip-rule:evenodd"
viewBox="0 0 340 340"
 xmlns:xlink="http://www.w3.org/1999/xlink">
 <defs>
  <style type="text/css">
   <![CDATA[
    .fil0 {fill:none}
    .fil1 {fill:#2980B9}
   ]]>
  </style>
 </defs>
 <g id="Layer_x0020_1">
  <metadata id="CorelCorpID_0Corel-Layer"/>
  <g id="_610428800">
   <polygon class="fil0" points="0,340 340,340 340,0 0,0 "/>
   <path class="fil1" d="M17 175c-2,0 -3,-1 -3,-3 0,-2 1,-3 3,-3l150 0 0 -153c0,-2 2,-3 4,-3 1,0 3,1 3,3l0 153 149 0c2,0 3,1 3,3 0,2 -1,3 -3,3l-149 0 0 147c0,2 -2,4 -3,4 -2,0 -4,-2 -4,-4l0 -147 -150 0zm57 -134c0,-4 2,-12 6,-17 4,-5 3,-8 3,-9 1,0 1,0 1,0 1,1 0,4 4,9 4,5 6,13 6,17 0,8 -3,15 -7,17l0 13 1 0 0 0c0,-4 4,-11 12,-16 3,-2 12,-5 19,-5 6,0 8,-3 9,-2 0,0 1,0 1,1 0,1 -3,1 -6,7 -3,7 -9,13 -13,16 -6,4 -13,5 -17,4l-6 3 0 18 3 0c0,0 1,-1 1,-1 1,-5 8,-11 18,-14 5,-1 15,-2 23,0 8,2 11,0 12,1 0,0 0,1 0,1 -1,1 -4,1 -9,7 -5,7 -14,11 -19,13 -10,4 -18,2 -23,-1l-6 1 0 16 4 0c2,-4 9,-7 17,-7 5,0 13,2 19,6 6,4 8,3 9,4 0,0 0,1 0,1 -1,1 -3,0 -9,4 -6,4 -14,6 -19,6 -9,1 -15,-3 -18,-7l-3 0 0 28c0,1 -1,3 -3,3 -2,0 -4,-2 -4,-3l0 -28 -2 0c-3,4 -9,8 -18,7 -5,0 -13,-2 -19,-6 -5,-4 -8,-3 -9,-4 0,0 0,-1 0,-1 1,-1 4,0 9,-4 6,-4 14,-6 19,-6 8,0 15,3 18,7l2 0 0 -16 -6 -1 0 0c-4,3 -13,5 -22,1 -5,-2 -14,-6 -20,-13 -5,-6 -8,-6 -9,-7 0,0 0,-1 1,-1 1,-1 3,1 11,-1 8,-2 18,-1 23,0 11,3 17,9 19,14 0,0 0,1 0,1l3 0 0 -19 -5 -2c-4,1 -11,1 -17,-4 -4,-3 -10,-9 -13,-16 -3,-6 -6,-6 -6,-7 0,-1 1,-1 1,-1 1,-1 3,2 9,2 7,0 16,3 19,5 8,5 12,12 12,16l0 0 0 0 0 -13c-3,-3 -6,-9 -6,-17zm182 24c11,0 11,8 11,17 0,6 -2,11 -6,14 10,2 11,10 11,20 0,11 -7,21 -16,21 -9,0 -16,-10 -16,-21 0,-10 0,-18 10,-20 -3,-3 -5,-8 -5,-14 0,-9 0,-17 11,-17l0 0zm16 18c12,-6 16,-13 20,-19 3,-4 6,-9 12,-12 1,-1 2,-3 1,-5 -1,-1 -3,-2 -5,-1 -6,5 -10,10 -13,14 -4,6 -7,12 -17,17 -2,1 -3,3 -2,4 1,2 3,2 4,2l0 0zm38 33c-8,-5 -12,-11 -16,-16 0,0 0,0 0,0 -5,-7 -9,-13 -23,-16 -1,-1 -3,1 -3,2 -1,2 0,4 2,4 11,2 15,8 19,14 0,0 0,0 0,0 4,5 8,12 18,17 1,1 3,1 4,-1 1,-1 1,-3 -1,-4l0 0zm-31 30c-1,-7 1,-14 2,-21 4,-13 7,-24 -10,-34 -2,-1 -4,0 -5,2 -1,1 0,3 1,4 13,7 11,16 8,27 -2,7 -4,14 -3,23 0,2 2,3 4,3 1,0 3,-2 3,-4l0 0zm-5 -74c2,-12 0,-20 -2,-27 -2,-5 -4,-10 -3,-17 0,-1 -1,-3 -3,-3 -2,0 -3,1 -3,3 -1,8 1,14 2,19 2,6 5,13 2,24 0,2 1,4 3,4 2,0 3,-1 4,-3l0 0zm-32 5c-10,-5 -14,-11 -18,-17 -3,-4 -7,-9 -13,-14 -2,-1 -4,0 -5,1 -1,2 0,4 1,5 6,3 9,8 12,12 4,6 8,13 20,19 1,0 3,0 4,-2 1,-1 0,-3 -1,-4l0 0zm-38 44c10,-5 14,-12 18,-17 0,0 0,0 0,0 4,-6 8,-12 19,-14 2,0 3,-2 2,-4 0,-1 -2,-3 -3,-2 -14,3 -18,9 -23,16 0,0 0,0 0,0 -4,5 -8,11 -16,16 -2,1 -2,3 -1,4 1,2 3,2 4,1l0 0zm35 26c1,-9 -1,-16 -3,-23 -3,-11 -5,-20 8,-27 1,-1 2,-3 1,-4 -1,-2 -3,-3 -4,-2 -18,10 -15,21 -11,34 1,7 3,14 3,21 -1,2 1,4 3,4 1,0 3,-1 3,-3l0 0zm5 -76c-2,-11 0,-18 2,-24 1,-5 3,-11 2,-19 0,-2 -1,-3 -3,-3 -2,0 -3,2 -3,3 1,7 -1,12 -3,17 -2,7 -4,15 -2,27 1,2 2,3 4,3 2,0 3,-2 3,-4zm8 240c5,1 8,-3 10,-9 2,-7 2,-18 2,-31 -2,-22 14,-36 24,-45 -4,0 -7,-1 -11,-1l0 0 0 0c-3,7 -10,20 -14,34 0,2 -2,3 -4,2 -2,0 -3,-2 -3,-4 4,-13 10,-25 14,-32 -4,-1 -8,-1 -13,-1 0,2 0,5 -1,7 0,8 -1,16 -1,27 0,1 -1,3 -3,3 -2,0 -4,-1 -4,-3 0,-11 1,-20 2,-28 0,-2 0,-4 0,-6 -5,0 -10,0 -15,1 3,3 5,7 7,12 2,6 4,12 5,21 0,2 -2,3 -4,3 -1,1 -3,-1 -3,-3 -1,-7 -2,-14 -5,-19 -2,-5 -4,-9 -7,-14 -3,1 -6,1 -8,1 9,9 21,23 19,45 -5,34 -1,39 5,40 2,0 4,0 6,0 1,0 2,0 2,0l0 0zm0 -110c37,0 64,-2 63,19 0,7 -7,8 -18,7 -2,1 -3,2 -5,4 -9,8 -23,20 -22,39 1,14 1,26 -1,34 -3,9 -8,14 -17,14 -1,0 -1,0 -2,0 -2,0 -4,0 -6,0 -11,-1 -17,-8 -12,-48 2,-20 -11,-33 -19,-41 -1,0 -1,-1 -2,-2 -12,2 -19,1 -20,-7 0,-21 24,-18 61,-19zm-144 7c23,-1 38,27 38,47 0,5 -3,15 -6,19 5,6 8,13 10,19 0,4 0,7 -1,10 -2,4 -5,6 -10,7 -7,2 -19,1 -37,-6 -13,-5 -27,-7 -39,-8 -13,0 -25,2 -34,7 -2,1 -4,0 -4,-2 -1,-1 0,-3 1,-4 11,-5 23,-7 37,-7 13,0 27,3 41,8 17,7 28,8 34,6 3,0 4,-2 5,-3 1,-2 1,-4 1,-7 -2,-5 -5,-12 -11,-18 -2,0 -4,-1 -7,-1 -1,0 -2,0 -3,0 0,1 -2,3 -3,3 -6,1 -10,1 -15,1 -2,1 -5,0 -8,0 -1,0 -2,1 -4,1 -2,0 -3,-1 -4,-1l0 0c0,-1 -1,-1 -2,-2 0,1 -1,1 -1,1 -2,1 -3,2 -5,3 -1,0 -1,-1 -2,-1 0,0 -1,0 -1,-1 0,0 -1,-1 -1,-1 0,0 0,0 -1,0 0,1 -1,0 -2,-1 0,-1 1,-2 1,-2 2,0 3,-1 5,-2 2,-2 5,-3 8,-3 1,0 2,0 2,1 1,0 3,1 6,1 1,0 1,1 1,1 3,0 6,0 8,0l0 0c0,0 -1,-1 -1,-1 -4,-1 -8,-5 -11,-7 -3,-2 -11,-2 -17,-4l-1 0c-2,0 -5,0 -7,1 -2,0 -4,-1 -6,-2 0,0 0,1 0,1 0,1 -1,1 -2,1 -1,0 -1,0 -1,0 0,0 0,0 0,0 -1,1 -2,1 -3,0 -1,0 -2,-2 -2,-3 0,-1 0,-2 0,-3 0,-1 1,-1 1,-1 0,-1 1,-2 2,-3 1,0 2,-1 3,-1 1,0 2,1 3,2 2,0 3,1 4,2 -3,-6 -6,-11 -20,-15 -8,1 -14,-2 -17,-7 -4,-7 -2,-8 15,-20 7,-5 16,-8 23,-9 1,-6 3,-16 14,-14 11,3 4,11 4,17 1,1 3,2 3,3 2,2 3,3 5,2 5,-1 9,-3 14,-4l0 0zm-54 7c-3,0 -6,2 -6,5 0,3 3,5 6,5 3,0 6,-2 6,-5 0,-3 -3,-5 -6,-5z"/>
  </g>
 </g>
</svg>

