<?xml version="1.0" encoding="UTF-8"?>
<!DOCTYPE svg PUBLIC "-//W3C//DTD SVG 1.1//EN" "http://www.w3.org/Graphics/SVG/1.1/DTD/svg11.dtd">
<svg xmlns="http://www.w3.org/2000/svg" xml:space="preserve" width="21.1666mm" height="21.1667mm" version="1.1" style="shape-rendering:geometricPrecision; text-rendering:geometricPrecision; image-rendering:optimizeQuality; fill-rule:evenodd; clip-rule:evenodd"
viewBox="0 0 246 246"
 xmlns:xlink="http://www.w3.org/1999/xlink">
 <defs>
  <style type="text/css">
   <![CDATA[
    .fil0 {fill:none}
    .fil1 {fill:#2980B9}
   ]]>
  </style>
 </defs>
 <g id="Layer_x0020_1">
  <metadata id="CorelCorpID_0Corel-Layer"/>
  <g id="_812168272">
   <polygon class="fil0" points="0,246 246,246 246,0 0,0 "/>
   <path class="fil1" d="M213 13c-3,-2 -11,-3 -13,1l-44 93 -4 35 25 -25 44 -93c2,-4 -4,-9 -8,-11l0 0zm-69 34l-109 30 67 126 109 -30 -28 -54 3 -5 31 60 0 0c0,0 0,0 0,0 0,1 0,3 -2,3l-114 31c-1,0 -2,0 -3,-1l-69 -130 0 0c0,0 0,0 0,0 0,-1 0,-3 2,-3l114 -31c1,0 2,0 3,1l17 32 -3 5 -18 -34zm-51 112l47 -13c1,0 2,-2 2,-3 0,-1 -2,-2 -3,-2l-47 13c-1,0 -2,2 -2,3 0,1 2,2 3,2l0 0zm-6 -10l60 -16 1 -5 -61 17c-1,0 -2,2 -2,3 0,1 2,2 3,2l0 0zm-5 -10l66 -18 1 -5 -68 19c-1,0 -2,2 -2,3 0,1 2,2 3,2l0 0zm-5 -10l73 -20 0 -2 0 0c0,-1 0,-1 1,-2l1 -1 -76 21c-1,0 -2,2 -2,3 0,1 2,2 3,2l0 0zm-5 -10c-1,0 -3,0 -3,-2 0,-1 0,-3 2,-3l83 -23c1,0 3,0 3,2 0,0 0,0 0,0l-1 2c0,0 0,0 -1,0l-83 23zm-5 -10l83 -23c1,0 2,-2 2,-3 0,-1 -2,-2 -3,-2l-83 23c-1,0 -2,2 -2,3 0,1 2,2 3,2l0 0zm-5 -10l83 -23c1,0 2,-2 2,-3 0,-1 -2,-2 -3,-2l-83 23c-1,0 -2,2 -2,3 0,1 2,2 3,2l0 0zm-40 -2c-1,-1 0,-3 1,-3 1,-1 3,0 3,1l68 129 112 -31c1,0 3,0 3,2 0,1 0,3 -2,3l-114 31c-1,0 -2,0 -3,-1l-69 -130zm4 -10c-1,-1 0,-3 1,-3 1,-1 3,0 3,1l68 129 112 -31c1,0 3,0 3,2 0,1 0,3 -2,3l-114 31c-1,0 -2,0 -3,-1l-69 -130z"/>
  </g>
 </g>
</svg>
