<?xml version="1.0" encoding="UTF-8"?>
<!DOCTYPE svg PUBLIC "-//W3C//DTD SVG 1.1//EN" "http://www.w3.org/Graphics/SVG/1.1/DTD/svg11.dtd">
<svg xmlns="http://www.w3.org/2000/svg" xml:space="preserve" width="21.1667mm" height="21.1665mm" version="1.1" style="shape-rendering:geometricPrecision; text-rendering:geometricPrecision; image-rendering:optimizeQuality; fill-rule:evenodd; clip-rule:evenodd"
viewBox="0 0 235 235"
 >
 <defs>
  <style type="text/css">
   <![CDATA[
    .fil0 {fill:none}
    .fil1 {fill:#2980B9}
   ]]>
  </style>
 </defs>
 <g id="Layer_x0020_1">
  <metadata id="CorelCorpID_0Corel-Layer"/>
  <g id="_801985552">
   <polygon class="fil0" points="0,235 235,235 235,0 0,0 "/>
   <path class="fil1" d="M161 124c13,0 13,8 13,19 0,7 -3,13 -7,16 12,2 12,12 12,23 0,13 -8,24 -18,24 -10,0 -19,-11 -19,-24 0,-11 1,-21 12,-23 -3,-3 -6,-9 -6,-16 0,-11 0,-19 13,-19l0 0zm-100 -89c15,0 15,10 0,10 -16,0 -16,-10 0,-10l0 0zm-13 -3c1,2 2,4 4,2 2,-1 0,-2 -1,-4 -1,-4 -2,-7 -5,-12 -1,-2 -3,-3 -5,-2 -2,2 -2,4 -1,5 3,6 5,8 8,11l0 0zm25 0c3,-3 5,-5 8,-11 1,-1 1,-3 -1,-5 -2,-1 -4,0 -5,2 -3,5 -3,8 -5,12 -1,2 -3,3 -1,4 2,2 3,0 4,-2l0 0zm-43 101c-1,1 -1,3 0,4 1,1 3,1 3,0 8,-9 7,-11 4,-16 -1,-1 -2,-3 -2,-4 -1,-2 -2,-3 -2,-5 -2,-3 -3,-4 -1,-6 1,-1 0,-2 -1,-3 -1,-1 -2,-1 -3,0 -3,4 -2,6 0,12 1,1 1,2 2,4 1,2 2,3 3,5 2,2 2,3 -3,9l0 0zm61 0c1,1 1,3 0,4 -1,1 -2,1 -3,0 -8,-9 -7,-11 -4,-16 1,-1 2,-3 3,-4 0,-2 1,-3 2,-5 1,-3 2,-4 1,-6 -1,-1 -1,-2 0,-3 1,-1 2,-1 3,0 4,4 3,6 0,12 0,1 -1,2 -2,4 -1,2 -2,3 -3,5 -1,2 -2,3 3,9l0 0zm-81 -40c-1,1 -2,2 -1,3 0,2 2,2 3,2 4,-2 7,-3 8,-5 2,-2 3,-4 4,-9l0 -1c1,-4 1,-5 5,-6 1,-1 2,-2 2,-3 -1,-2 -2,-2 -3,-2 -7,2 -8,4 -9,10 0,0 0,0 0,1 -1,4 -1,6 -2,7 -1,1 -3,2 -7,3l0 0zm101 0c1,1 2,2 2,3 -1,2 -2,2 -4,2 -4,-2 -7,-3 -8,-5 -2,-2 -2,-4 -3,-9l-1 -1c0,-4 -1,-5 -5,-6 -1,-1 -2,-2 -1,-3 0,-2 1,-2 3,-2 7,2 7,4 8,10 0,0 0,0 0,1 1,4 2,6 3,7 0,1 2,2 6,3l0 0zm-77 -40c2,0 3,-1 3,-2 1,-1 0,-2 -1,-3 -4,-1 -4,-2 -3,-4 0,-1 0,-1 0,-2 1,-5 -1,-7 -3,-10l0 0 0 0c-1,0 -1,-1 -2,-1 -1,-1 -2,-1 -3,0 -1,1 -1,2 0,3 0,1 1,1 1,2l0 0c2,1 3,2 2,5 0,1 0,1 0,2 -1,4 -2,7 6,10l0 0zm53 0c-1,0 -3,-1 -3,-2 -1,-1 0,-2 1,-3 4,-1 4,-2 4,-4 -1,-1 -1,-1 -1,-2 -1,-5 1,-7 3,-10l0 0 0 0c1,0 2,-1 2,-1 1,-1 2,-1 3,0 1,1 2,2 1,3 -1,1 -2,1 -2,2l0 0c-2,1 -3,2 -2,5 0,1 0,1 0,2 1,4 2,7 -6,10l0 0zm-8 -7c-3,-4 -2,-3 -5,-1 -8,5 -19,5 -26,0 -4,-2 -3,-3 -6,1 -1,2 -2,5 -4,7 -2,5 -2,4 4,6 5,3 11,4 19,4 7,0 13,-1 18,-3 7,-3 6,-3 3,-8 -1,-3 -2,-4 -3,-6l0 0zm7 15c-6,4 -15,6 -23,6l0 70c24,-3 30,-54 23,-76l0 0zm-27 76c-25,-3 -31,-54 -24,-76 7,4 16,6 24,6l0 70zm88 -7c-3,-12 0,-20 2,-27 2,-7 4,-13 3,-22 0,-2 -2,-3 -4,-3 -1,0 -3,2 -3,4 1,7 -1,13 -3,19 -2,8 -5,16 -2,31 0,2 2,3 4,3 2,-1 3,-3 3,-5l0 0zm-3 7c-11,-6 -16,-12 -20,-19 -4,-5 -7,-11 -15,-16 -2,-1 -4,0 -5,1 -1,2 0,4 1,5 7,4 10,9 13,14 5,7 10,15 23,21 2,1 4,1 5,-1 1,-2 0,-4 -2,-5l0 0zm-42 51c11,-7 16,-14 20,-20 5,-7 9,-13 22,-16 2,0 3,-2 3,-4 -1,-2 -3,-3 -5,-3 -15,3 -20,11 -26,19 -4,6 -8,12 -18,18 -2,1 -2,3 -1,5 1,1 3,2 5,1l0 0zm39 29c1,-10 -1,-18 -3,-26 -3,-13 -6,-23 9,-31 2,-1 2,-3 1,-5 -1,-1 -3,-2 -4,-1 -20,11 -17,23 -13,39 2,7 4,15 3,24 0,2 2,3 4,3 2,1 3,-1 3,-3l0 0zm46 0c-1,-9 1,-17 3,-24 4,-16 7,-28 -12,-39 -2,-1 -4,0 -5,1 -1,2 0,4 1,5 15,8 13,18 9,31 -2,8 -4,16 -3,26 0,2 2,4 4,3 1,0 3,-1 3,-3l0 0zm36 -35c-10,-6 -14,-12 -18,-18 -6,-8 -11,-16 -26,-19 -2,0 -4,1 -4,3 -1,2 1,4 2,4 13,3 17,9 22,16 5,6 10,13 21,20 1,1 3,0 4,-1 1,-2 1,-4 -1,-5l0 0zm-43 -39c13,-6 18,-14 23,-21 3,-5 6,-10 13,-14 2,-1 2,-3 1,-5 -1,-1 -3,-2 -5,-1 -7,5 -11,11 -15,16 -4,7 -9,13 -20,19 -2,1 -3,3 -2,5 1,2 3,2 5,1l0 0zm1 -11c3,-15 0,-23 -2,-31 -2,-6 -4,-12 -3,-19 0,-2 -1,-4 -3,-4 -2,0 -4,1 -4,3 -1,9 1,15 3,22 3,7 5,15 2,27 0,2 1,4 3,5 2,0 4,-1 4,-3z"/>
  </g>
 </g>
</svg>
