<?xml version="1.0" encoding="UTF-8"?>
<!DOCTYPE svg PUBLIC "-//W3C//DTD SVG 1.1//EN" "http://www.w3.org/Graphics/SVG/1.1/DTD/svg11.dtd">
<svg xmlns="http://www.w3.org/2000/svg" xml:space="preserve" width="21.1667mm" height="21.1667mm" version="1.1" style="shape-rendering:geometricPrecision; text-rendering:geometricPrecision; image-rendering:optimizeQuality; fill-rule:evenodd; clip-rule:evenodd"
viewBox="0 0 573 573"
 >
 <defs>
  <style type="text/css">
   <![CDATA[
    .fil0 {fill:none}
    .fil1 {fill:#2980B9}
   ]]>
  </style>
 </defs>
 <g id="Layer_x0020_1">
  <metadata id="CorelCorpID_0Corel-Layer"/>
  <g id="_801971184">
   <polygon class="fil0" points="0,573 573,573 573,0 0,0 "/>
   <path class="fil1" d="M205 271c-4,-1 -7,-3 -9,-4l0 0c-4,-2 -12,-9 -17,-15 -4,-5 -6,-11 0,-15l2 -1 2 1c7,7 15,12 22,17 7,6 15,10 24,13 8,3 19,8 30,7 8,0 15,-2 19,-6 7,-7 10,-17 10,-28 0,-11 -2,-23 -4,-33 -1,-5 -6,-16 -10,-24 -3,-8 -6,-14 -5,-16l1 -2 1 0c9,-1 17,16 21,24l0 0 1 1c1,2 1,5 2,8 1,5 3,11 5,14 1,2 2,3 4,2 1,-1 1,-3 1,-5 0,-3 0,-7 3,-10l1 -1 1 0c7,-1 9,3 12,8 3,4 6,9 13,9 1,0 1,-1 1,-3 -2,-3 -5,-8 -9,-13 -5,-6 -9,-11 -7,-14l1 -2 1 0c3,0 6,0 9,1 5,0 10,1 14,-3 -1,-3 -7,-5 -12,-7 -5,-3 -10,-4 -10,-9l0 0 0 0c1,-7 4,-7 8,-8 2,0 4,-1 6,-2 -3,-6 -9,-5 -14,-3 -6,3 -13,5 -19,0 -6,-4 -9,-9 -13,-13 -4,-6 -8,-11 -19,-12 -5,0 -11,5 -16,9 -2,1 -4,3 -6,4l-2 1 -1 -2c-2,-1 -4,-3 -6,-6 -8,-7 -18,-17 -19,-22l0 -2 2 -1c3,-2 18,-4 26,-5 2,0 3,0 4,0 7,-1 12,-3 17,-4 3,-2 7,-3 12,-4l1 0 1 0c4,3 11,7 20,11 6,3 14,6 20,7 5,1 9,1 10,0 0,0 0,0 0,0 2,-5 -5,-8 -9,-10 -2,-1 -3,-2 -4,-2 -2,-1 -9,-6 -14,-9 -4,-3 -7,-6 -7,-8l1 -2 2 0c2,0 8,-1 13,-1 3,-1 7,-1 8,-1l0 0 13 -1 0 0c3,0 6,1 10,1 5,1 10,1 11,-3l0 0c0,-2 -3,-4 -8,-4 -4,-1 -9,-1 -15,-1 -11,0 -24,-1 -33,-5 -8,-3 -9,-6 -8,-9 2,-4 8,-7 14,-10 4,-1 7,-3 9,-4 1,-1 1,-2 1,-2l0 0c1,-1 1,-1 0,-1l0 0c0,0 0,-1 -1,-1 -2,-1 -4,-2 -7,-2 -1,1 -3,2 -6,3 -7,3 -16,8 -29,8 -7,0 -15,-3 -23,-5 -6,-2 -12,-4 -19,-4 -14,-2 -27,-3 -41,-2 -13,1 -26,4 -39,11 -3,2 -3,5 -2,7 0,1 0,2 0,3 -1,3 -2,5 -6,5 -11,-1 -18,0 -22,3 -4,3 -7,8 -9,16 -1,3 -1,5 -1,6 -1,2 -1,3 -2,4l0 0c-2,2 -3,2 -6,0l0 0c0,0 -1,0 -2,0l0 0 0 -1c-7,-2 -15,4 -22,13 -7,10 -13,22 -16,29l0 0 0 1 0 0c-4,10 -9,18 -12,25 -10,21 -16,32 -8,71 1,4 0,11 -3,17 -2,9 -6,18 -9,23 -1,1 -2,3 -2,4 0,2 0,3 1,4 0,2 1,2 2,3 0,0 1,0 1,1 4,0 8,-9 12,-17 2,-5 4,-10 6,-12l1 -1 1 0c8,0 10,5 14,14l0 0c1,2 2,5 3,7 2,4 3,7 4,9 2,4 3,7 4,9 1,0 1,1 2,1 0,0 0,0 0,0 0,0 1,0 1,-1l0 0c1,0 2,-2 2,-3 0,-2 0,-4 0,-7 0,-3 -1,-6 -2,-9 0,-2 0,-4 -1,-7 -1,-1 -1,-3 -2,-4l0 0c-1,-2 -2,-3 -2,-4l0 0c-1,-1 -1,-1 -2,-2 -1,-2 -2,-4 -2,-5 0,-2 1,-3 2,-4 0,-1 2,-2 3,-2 2,0 4,0 6,1 8,2 15,8 22,13 7,6 13,11 17,9l0 0c0,-1 0,-1 0,-3 -1,-1 -2,-3 -4,-5 -2,-2 -3,-3 -5,-4l0 0 0 -1c-2,-2 -6,-7 -10,-11 -3,-3 -7,-7 -10,-10l-1 -1 1 -2c0,-1 2,-5 5,-11 5,-12 14,-30 15,-35 1,-3 1,-5 2,-6 0,-3 1,-6 2,-9l1 -2 2 0c4,1 8,5 11,9 6,6 11,14 13,17 2,3 4,6 5,8l0 0c2,3 4,5 6,7l1 3 -2 1c-2,2 -7,7 -11,12 -3,4 -6,8 -6,9 -1,11 2,14 7,19 3,3 7,7 10,14 4,7 1,13 -2,19 -2,6 -5,12 1,17 2,-2 3,-4 4,-6 2,-4 3,-7 10,-7l3 0 -1 3c0,5 1,12 3,16 1,3 3,5 6,6 4,-3 4,-8 4,-12 -1,-4 -1,-7 0,-9l1 -2 1 0c4,-1 8,3 13,8 3,4 7,8 10,10 2,1 3,1 4,0 1,-7 -4,-10 -8,-13 -4,-4 -9,-7 -6,-14l0 0 1 -1c3,-3 8,-2 12,-2 3,0 6,0 7,-1 1,0 1,-1 0,-2 -3,-2 -9,-4 -15,-6l0 0zm172 90c12,12 -31,39 -40,42 -64,22 -79,14 -139,-4 -20,-6 -37,-1 -48,20 -12,23 6,53 19,62 29,21 75,-2 100,-17 34,-20 37,-32 80,-47 41,-14 72,-4 100,-26 27,-22 44,-54 39,-88 -7,-49 -40,-66 -84,-61 -3,0 -34,23 -49,12 -8,-5 1,-26 5,-31 5,-7 13,-14 20,-18 55,-29 116,-6 144,43 24,41 27,94 3,136 -23,42 -42,60 -88,75 -22,7 -52,7 -76,15 -36,13 -62,46 -110,61 -66,20 -149,-13 -154,-85 -3,-40 22,-95 69,-100 47,-5 100,28 139,23 11,-1 26,-4 37,-7 11,-3 25,-14 33,-5l0 0zm7 -135c-4,2 -6,6 -4,9 1,3 6,4 10,2 4,-3 6,-7 4,-10 -1,-3 -6,-3 -10,-1l0 0zm-154 18c15,15 -3,21 -12,9 -12,-14 0,-21 12,-9l0 0zm33 -32c-7,-20 11,-17 14,-3 5,18 -9,20 -14,3z"/>
  </g>
 </g>
</svg>
