<?xml version="1.0" encoding="UTF-8"?>
<!DOCTYPE svg PUBLIC "-//W3C//DTD SVG 1.1//EN" "http://www.w3.org/Graphics/SVG/1.1/DTD/svg11.dtd">
<!-- Creator: CorelDRAW X8 -->
<svg xmlns="http://www.w3.org/2000/svg" xml:space="preserve" width="21.1667mm" height="21.1666mm" version="1.1" style="shape-rendering:geometricPrecision; text-rendering:geometricPrecision; image-rendering:optimizeQuality; fill-rule:evenodd; clip-rule:evenodd"
viewBox="0 0 307 307"
 xmlns:xlink="http://www.w3.org/1999/xlink">
 <defs>
  <style type="text/css">
   <![CDATA[
    .fil0 {fill:none}
    .fil1 {fill:#027381}
   ]]>
  </style>
 </defs>
 <g id="Layer_x0020_1">
  <metadata id="CorelCorpID_0Corel-Layer"/>
  <g id="_801976592">
   <polygon class="fil0" points="0,307 307,307 307,0 0,0 "/>
   <path class="fil1" d="M29 107c12,-52 58,-86 111,-78 50,8 80,50 60,104 -13,37 -46,41 -68,39 -7,-1 -13,-3 -18,-5 -6,-3 -11,-6 -14,-9 -6,-7 -10,-15 -13,-24 -2,-9 -2,-19 0,-27 1,-1 1,-2 1,-2 3,-11 11,-20 21,-25 10,-6 22,-8 34,-5 0,0 1,0 1,0 11,3 18,9 22,16 4,8 4,18 2,28l0 0 0 0 0 0c-2,9 -8,15 -14,19 -7,4 -15,5 -22,3l0 0 -1 0 0 0c-7,-1 -12,-5 -15,-10 -2,-5 -3,-11 -2,-19 1,-1 1,-2 1,-3 2,-5 5,-8 9,-10 4,-1 9,-2 12,-1 1,0 1,0 2,0 3,2 6,4 8,6 1,3 2,6 1,9 0,0 0,0 0,1 -1,3 -3,6 -6,8 -2,1 -5,2 -7,1l0 0 0 0c0,0 0,0 -1,0 -2,0 -3,-1 -4,-2 -1,-2 -1,-4 -1,-6 0,0 1,-2 2,-2 1,-1 2,-1 3,-1 0,0 0,0 1,0l0 0c0,0 0,0 0,1 0,0 0,0 0,0l0 0 0 0c0,0 -1,1 -2,1 -1,1 -2,3 -1,4 1,2 3,2 4,1 3,-1 4,-3 4,-4l0 0c1,-2 1,-3 1,-4 -1,-1 -1,-2 -2,-3 0,0 -1,0 -1,0 -1,-1 -2,-2 -4,-2 -3,0 -5,1 -7,2 -2,2 -3,4 -4,6 0,4 0,7 2,10 2,2 4,4 8,5 0,0 0,0 0,0l0 0 0 0c5,1 9,0 13,-3 3,-2 6,-6 8,-11l0 -1c1,-5 0,-9 -2,-13 -3,-4 -6,-6 -11,-8 -1,0 -2,-1 -3,-1 -4,-1 -10,0 -15,2 -5,2 -10,6 -12,14 -1,1 -1,2 -1,3 -2,9 -1,17 2,23 4,6 10,11 19,13l0 0 0 0 0 0 0 0c9,2 19,1 27,-4 8,-5 14,-12 17,-22l0 0 0 -1 0 0 0 0c2,-11 2,-22 -3,-32 -5,-8 -12,-15 -25,-18 -1,-1 -2,-1 -2,-1 -13,-3 -27,-1 -38,5 -11,7 -20,17 -24,29 0,1 0,2 0,2 -3,10 -3,20 0,31 2,9 7,18 14,26 2,2 4,3 6,5 -15,8 -36,42 -46,32 -24,-23 -35,-57 -27,-92l0 0zm179 83c8,-1 17,-2 27,-1 1,-2 2,-4 3,-5 -1,-3 -2,-5 -4,-6 -2,-3 -5,-4 -7,-5 -3,0 -6,0 -9,1 0,0 -1,0 -2,0 -3,6 -6,11 -8,16l0 0zm12 -23c2,-3 3,-5 5,-8 2,-2 3,-5 5,-7 1,-1 3,-1 4,-1 3,0 5,1 8,2 2,2 4,4 5,7 1,2 2,3 2,5 -1,2 -2,4 -4,7 -1,2 -2,4 -4,6 0,-2 -2,-3 -3,-4 -3,-4 -6,-6 -10,-7 -3,0 -5,0 -8,0l0 0zm14 -22l0 0c4,0 8,1 11,3 3,2 6,6 8,10 0,0 0,0 0,1 3,-5 5,-9 8,-13 0,-2 -1,-3 -1,-5 -1,-3 -3,-5 -6,-7 -2,-2 -5,-2 -7,-3 -2,0 -3,0 -4,0 -3,5 -6,9 -9,14l0 0zm12 -20c3,-5 5,-9 7,-14 1,0 3,0 4,-1 3,0 6,0 8,1 3,1 5,3 7,6 1,1 2,3 2,4 -2,6 -5,12 -9,18 -1,-4 -4,-8 -7,-10 -3,-2 -7,-3 -11,-4 0,0 0,0 -1,0l0 0zm9 -20c1,0 1,0 1,-1 4,0 8,0 12,2 3,1 6,4 9,8 0,0 0,0 0,0 2,-5 4,-10 5,-15 -1,0 -1,-1 -2,-2 -3,-2 -7,-4 -10,-5 -4,0 -8,1 -11,2 -1,1 -2,1 -3,2 0,3 0,6 -1,9l0 0zm0 -15c0,-2 -1,-4 -2,-5 5,-4 10,-7 16,-7 4,-1 9,0 13,2 1,4 1,8 1,12 -4,-3 -8,-5 -13,-5 -5,-1 -9,0 -14,2 0,0 0,0 -1,1l0 0zm-4 -11c5,-4 11,-6 17,-7 4,-1 8,0 12,1 -1,-3 -2,-6 -4,-9 -5,-1 -9,-1 -13,0 -5,2 -10,4 -13,8 0,2 0,5 1,7l0 0zm-2 -15c1,-5 2,-9 4,-10 3,-2 12,0 17,4 -3,0 -6,0 -9,1 -4,1 -8,3 -12,5l0 0zm-4 132l1 0c5,1 9,2 14,3 1,2 1,3 2,5 1,3 1,5 0,8 0,3 -2,5 -4,8 -1,1 -2,2 -4,3 -4,-2 -8,-3 -12,-4l-1 0c1,-1 2,-2 2,-3 2,-3 3,-7 3,-11 0,-4 -1,-7 -2,-10 0,1 1,1 1,1l0 0zm23 7c1,4 1,7 0,10 -1,4 -3,8 -6,11 -1,1 -2,1 -3,2 2,2 4,4 5,7 2,0 3,0 5,0 3,0 6,0 8,-2 2,-1 4,-4 5,-6 1,-2 2,-3 2,-5 -3,-7 -9,-13 -16,-17l0 0zm19 25c2,6 2,13 1,21 0,0 -1,1 -1,1 -2,2 -4,4 -6,5 -3,1 -6,1 -9,1 -2,-1 -5,-2 -7,-4 -1,-1 -2,-1 -2,-2 1,-3 2,-7 2,-11 1,0 2,0 4,0 4,0 8,-1 11,-3 3,-2 6,-5 7,-8l0 0zm-3 32c0,0 -1,0 -1,0 -4,2 -8,2 -11,2 -4,-1 -8,-3 -11,-6 -1,0 -1,-1 -2,-1 -1,1 -2,2 -4,3 0,2 0,4 0,5 0,3 1,6 3,8 2,2 4,4 7,5 1,0 3,1 4,1 6,-5 12,-10 15,-17l0 0zm-22 21c-3,1 -7,3 -10,4 -4,0 -7,1 -11,1 -1,-1 -3,-3 -4,-5 -1,-3 -2,-5 -2,-8 0,-3 1,-6 3,-8 1,-1 1,-2 2,-2 2,-1 4,-1 6,-1 1,-1 2,-1 3,-1 0,1 0,2 0,3 0,4 2,8 5,11 2,3 5,5 8,6l0 0zm-29 5c-8,-2 -17,-5 -23,-11 0,-2 0,-3 1,-4 0,-3 2,-6 3,-8 2,-2 5,-3 8,-4 2,0 3,-1 5,0 2,1 4,2 6,3 -2,3 -4,7 -4,11 0,4 1,7 3,11 0,0 1,1 1,2l0 0zm-28 -17c1,-4 3,-7 5,-10 3,-3 6,-5 11,-6 1,0 1,0 2,0 -1,-2 -2,-4 -2,-6 -2,-2 -3,-3 -5,-4 -3,-1 -6,-2 -8,-2 -3,1 -6,2 -8,3 -1,1 -2,2 -3,3 1,9 4,16 8,22l0 0zm-8 -30c-1,-4 0,-8 0,-12l2 -1c7,-1 14,-2 23,-2 -2,6 -2,10 -2,15 0,0 -1,-1 -1,-1 -4,-2 -8,-3 -12,-3 -4,1 -7,2 -10,4l0 0zm37 -21c2,-1 3,-3 4,-5 2,-2 2,-5 2,-8 0,-3 -1,-5 -2,-8 -1,-1 -2,-2 -2,-2 -7,-1 -14,-1 -19,0 2,2 4,5 5,8 1,3 1,8 0,12 0,1 -1,2 -1,3 1,0 2,0 3,0 4,0 7,0 10,0l0 0zm-20 0c1,-1 2,-3 2,-5 1,-3 1,-6 0,-8 -1,-3 -2,-5 -5,-7 -1,-1 -2,-2 -3,-3 -1,1 -3,1 -5,1 -1,0 -2,0 -4,1 -2,0 -5,0 -8,1 2,2 4,4 5,6 2,4 3,8 2,12 0,1 0,3 -1,5l1 -1c5,0 10,-1 16,-2l0 0zm-23 4c1,-2 1,-5 1,-7 1,-3 0,-6 -1,-8 -1,-3 -3,-5 -6,-6 -1,-1 -2,-1 -3,-2 -5,1 -10,3 -16,5 3,1 6,3 8,6 2,3 3,7 3,12 0,1 0,2 0,3 5,-1 9,-2 14,-3l0 0zm-20 5c0,-2 0,-4 0,-5 0,-3 -1,-6 -2,-8 -2,-3 -4,-4 -7,-6 -1,0 -3,-1 -5,-1 -2,0 -3,1 -5,2 -3,1 -6,2 -8,3 3,2 6,4 8,7 3,4 4,8 4,12 0,1 0,1 0,2 2,-1 3,-2 5,-2 4,-2 7,-3 10,-4l0 0zm-22 9c-4,3 -8,6 -12,9 0,-1 0,-2 -1,-3 0,-5 -2,-9 -4,-12 -3,-3 -6,-5 -10,-6 0,0 0,0 -1,0 5,-3 10,-6 15,-8 2,0 3,1 5,1 3,2 5,3 6,6 2,2 3,5 3,8 0,2 0,4 -1,5l0 0zm-19 13c1,-2 1,-5 1,-7 -1,-3 -2,-6 -4,-8 -2,-2 -4,-4 -7,-5 -2,0 -4,-1 -6,-1 -4,3 -8,6 -12,10 3,0 7,2 9,5 3,3 5,6 6,10 0,2 1,3 1,5 4,-3 8,-6 12,-9l0 0zm-18 13c-3,1 -6,3 -9,5 0,-1 0,-2 0,-3 -1,-4 -3,-7 -6,-10 -2,-2 -5,-4 -9,-5l0 0c3,-2 5,-4 7,-6 2,0 3,0 5,0 3,1 5,2 7,4 2,2 4,5 4,8 1,2 1,4 1,7l0 0zm-15 9c0,-2 0,-4 0,-6 -1,-3 -2,-5 -4,-7 -1,-1 -4,-2 -6,-3 -1,0 -3,0 -5,0 -1,1 -3,4 -5,6 2,1 5,2 6,4 2,2 4,4 5,8 0,0 0,1 0,2 3,-1 6,-3 8,-4l1 0zm-15 6c-6,2 -12,2 -13,1 -1,-2 1,-7 4,-11 1,0 1,0 2,0 2,0 3,1 4,2 1,1 2,3 3,5 0,1 0,2 0,3z"/>
  </g>
 </g>
</svg>
