<?xml version="1.0" encoding="UTF-8"?>
<!DOCTYPE svg PUBLIC "-//W3C//DTD SVG 1.1//EN" "http://www.w3.org/Graphics/SVG/1.1/DTD/svg11.dtd">
<!-- Creator: CorelDRAW X8 -->
<svg xmlns="http://www.w3.org/2000/svg" xml:space="preserve" width="21.1667mm" height="21.1664mm" version="1.1" style="shape-rendering:geometricPrecision; text-rendering:geometricPrecision; image-rendering:optimizeQuality; fill-rule:evenodd; clip-rule:evenodd"
viewBox="0 0 546 546"
 >
 <defs>
  <style type="text/css">
   <![CDATA[
    .fil0 {fill:none}
    .fil1 {fill:#027381}
   ]]>
  </style>
 </defs>
 <g id="Layer_x0020_1">
  <metadata id="CorelCorpID_0Corel-Layer"/>
  <g id="_801972240">
   <polygon class="fil0" points="0,546 546,546 546,0 0,0 "/>
   <path class="fil1" d="M164 431c1,8 -1,16 -6,19 -4,3 -9,0 -19,-14 -6,-8 -8,-19 -8,-27 -14,-11 -29,-28 -38,-44 -2,2 -14,20 -14,19 -11,-6 -51,-74 -45,-87 5,-10 14,-23 31,-34 5,-77 56,-120 95,-144 20,-12 49,-22 67,-24 43,-8 82,-12 86,-4 7,13 -24,8 -31,37 -2,7 5,1 24,-7 11,-5 15,-16 17,-14 12,15 -21,44 -46,66 -14,12 -34,34 -46,40 16,27 35,38 24,50 -7,8 -38,3 -54,-7 -26,50 33,142 151,111 12,-3 27,-8 33,-19 12,-20 12,-53 18,-77 5,-17 10,-12 20,2 11,15 26,32 64,31 29,0 43,0 13,30 -18,18 -51,23 -75,37 -14,8 -27,20 -40,28 -17,9 -31,21 -48,30 1,3 8,9 8,17 1,8 -14,14 -37,17 -14,1 -44,-3 -58,-10 -29,-1 -59,-9 -86,-22l0 0zm21 -307c-7,13 -10,26 -8,37 1,8 4,16 9,21 5,6 11,10 20,12 11,2 25,0 41,-8 3,-2 4,-5 3,-8 -2,-2 -5,-4 -8,-2 -14,7 -25,8 -34,7 -6,-1 -11,-4 -14,-8 -3,-4 -6,-9 -6,-15 -1,-9 1,-20 7,-30 2,-3 1,-6 -2,-8 -3,-2 -6,-1 -8,2l0 0zm76 -17c-7,0 -12,5 -12,12 0,6 5,11 12,11 6,0 12,-5 12,-11 0,-7 -6,-12 -12,-12z"/>
  </g>
 </g>
</svg>
