<?xml version="1.0" encoding="UTF-8"?>
<!DOCTYPE svg PUBLIC "-//W3C//DTD SVG 1.1//EN" "http://www.w3.org/Graphics/SVG/1.1/DTD/svg11.dtd">
<!-- Creator: CorelDRAW X8 -->
<svg xmlns="http://www.w3.org/2000/svg" xml:space="preserve" width="21.1667mm" height="21.1666mm" version="1.1" style="shape-rendering:geometricPrecision; text-rendering:geometricPrecision; image-rendering:optimizeQuality; fill-rule:evenodd; clip-rule:evenodd"
viewBox="0 0 709 709"
 xmlns:xlink="http://www.w3.org/1999/xlink">
 <defs>
  <style type="text/css">
   <![CDATA[
    .fil0 {fill:none}
    .fil1 {fill:#027381}
   ]]>
  </style>
 </defs>
 <g id="Layer_x0020_1">
  <metadata id="CorelCorpID_0Corel-Layer"/>
  <g id="_801981840">
   <polygon class="fil0" points="0,709 709,709 709,0 0,0 "/>
   <path class="fil1" d="M445 268c-1,-1 -3,-2 -5,-2 31,-31 58,-62 83,-96 29,-38 56,-81 85,-131 1,-4 0,-8 -3,-10 -3,-2 -8,0 -9,3 -29,50 -56,92 -84,129 -28,38 -57,71 -92,105 -1,0 -1,1 -2,2 -27,5 -69,23 -106,47 -4,-11 -11,-24 -21,-30 -6,-3 -8,-2 -17,2 -21,8 -14,16 2,29 6,4 12,8 18,11 -8,7 -15,13 -22,20 -38,37 -59,56 -52,80 7,10 17,22 28,33l0 0 0 0c14,14 28,25 42,34 22,4 41,-17 76,-52 7,-7 13,-15 20,-23 3,6 7,12 11,18 13,16 21,23 29,2 4,-10 5,-11 2,-17 -6,-10 -19,-17 -30,-21 25,-37 42,-80 48,-107 0,-1 1,-1 1,-1 33,-35 67,-65 104,-93 38,-28 80,-54 130,-83 3,-2 4,-6 2,-9 -1,-4 -6,-5 -9,-3 -51,29 -93,56 -131,84 -34,26 -65,53 -96,84 0,-2 -1,-4 -2,-5l0 0zm-69 182c8,5 14,9 20,12 19,12 28,17 40,19 12,2 27,0 56,-4 13,-1 27,-3 44,-5 4,0 7,3 7,6 1,4 -2,8 -6,8 -18,2 -31,4 -43,5 -31,4 -47,6 -60,4 -15,-2 -25,-8 -45,-21 -6,-4 -13,-8 -20,-12 -3,-2 -4,-6 -3,-9 2,-4 7,-5 10,-3l0 0zm-125 -106c-5,-7 -9,-14 -12,-20 -13,-21 -19,-31 -21,-45 -2,-14 0,-29 4,-60 1,-12 3,-26 5,-44 0,-3 4,-6 7,-6 4,1 7,4 6,8 -1,16 -3,31 -5,43 -3,30 -5,45 -3,57 1,12 7,21 19,40 3,5 7,12 11,20 2,3 1,7 -2,9 -3,2 -7,1 -9,-2l0 0zm-31 33c-5,-6 -10,-12 -15,-17 -15,-19 -23,-28 -28,-42 -4,-13 -4,-29 -6,-60 0,-12 -1,-26 -2,-43 0,-4 3,-7 7,-7 4,-1 7,2 7,6 1,17 2,32 2,44 1,30 2,45 6,56 3,11 10,20 25,37 4,4 8,10 15,17 2,3 2,8 -1,10 -3,3 -7,2 -10,-1l0 0zm-18 31c-49,-33 -53,-40 -79,-85 -5,-9 -11,-18 -18,-30 -1,-3 0,-7 3,-9 3,-2 7,-1 9,2 7,11 13,21 17,30 25,43 29,49 75,81 3,2 4,6 2,9 -2,3 -6,4 -9,2l0 0zm-19 35c4,1 7,-1 8,-5 1,-4 -1,-7 -5,-8 -3,-1 -7,-2 -12,-3 -29,-6 -42,-9 -53,-1 -9,7 -14,19 -23,43 -4,10 -8,21 -13,34 -2,3 0,7 4,9 3,1 7,0 9,-4 5,-14 9,-25 13,-34 8,-21 12,-33 18,-37 6,-5 17,-2 42,4 3,0 6,1 12,2l0 0zm100 84c-1,-4 -5,-6 -8,-6 -4,1 -6,5 -6,9 2,6 2,9 3,12 6,24 8,36 4,42 -5,5 -16,10 -37,18 -10,3 -20,8 -34,13 -4,2 -6,6 -4,9 1,4 5,5 9,4 12,-5 24,-10 33,-13 24,-9 37,-14 44,-23 8,-11 5,-25 -2,-53 -1,-5 -2,-10 -2,-12l0 0zm33 -24c-2,-3 -6,-4 -10,-1 -3,2 -3,6 -1,9 33,49 40,53 85,79 8,5 18,10 29,17 4,2 8,1 10,-2 2,-3 1,-8 -2,-10 -12,-6 -21,-12 -30,-17 -43,-24 -49,-28 -81,-75l0 0zm28 -21c8,7 13,11 18,15 17,15 25,22 37,25 11,4 26,4 56,5 12,1 27,2 44,2 3,1 6,4 6,8 0,4 -3,6 -7,6 -18,-1 -32,-1 -44,-2 -31,-1 -47,-2 -60,-6 -14,-4 -23,-12 -41,-28 -6,-4 -12,-10 -18,-15 -2,-2 -3,-6 0,-9 2,-3 6,-3 9,-1l0 0zm141 -375c1,1 2,3 2,4 -6,-2 -15,2 -32,8 -27,9 -60,31 -59,35 2,3 40,0 68,-9 17,-6 27,-9 31,-15 3,30 -39,39 -79,58 -30,14 -43,30 -66,32 -23,3 -38,-2 -68,-34 -21,-21 10,-45 62,-65 52,-19 128,-35 141,-14l0 0zm120 121c21,13 6,89 -14,141 -19,52 -43,82 -64,62 -33,-31 -37,-45 -35,-69 3,-23 19,-36 33,-65 19,-40 27,-82 57,-79 -5,4 -8,13 -14,31 -9,27 -12,66 -9,67 4,1 25,-31 35,-58 6,-17 9,-27 8,-33 1,1 2,2 3,3l0 0zm-346 52c-5,-1 -14,-31 -9,-55 4,-25 8,-45 32,-21 24,24 20,16 15,40 -4,24 -32,37 -38,36l0 0zm174 173c-1,-6 11,-33 36,-38 24,-4 16,-9 39,15 24,24 4,29 -20,33 -24,4 -54,-4 -55,-10l0 0zm-224 -18c8,11 18,23 29,34l0 0 0 0c13,13 25,24 38,32 -2,6 -6,12 -12,18 -13,-9 -27,-21 -41,-34 -13,-13 -23,-26 -32,-38 6,-5 12,-9 18,-12l0 0zm-28 22c9,12 20,25 32,37 14,14 28,26 42,35 -5,5 -10,10 -15,15 -13,-9 -26,-20 -39,-33l0 0c-14,-13 -25,-27 -34,-40 5,-6 10,-10 14,-14l0 0zm-24 24c9,13 20,27 34,40l0 0c13,13 26,24 39,33 -6,5 -11,10 -18,14 -11,-8 -22,-18 -34,-29l0 0 0 0 0 0c-14,-14 -26,-29 -35,-42 5,-6 9,-11 14,-16l0 0zm-22 28c9,13 20,26 33,40l0 0 0 0 0 0c11,10 22,20 33,28 -7,4 -13,8 -20,12 -8,-7 -17,-15 -26,-24l0 0c-13,-13 -23,-25 -32,-37 4,-7 8,-13 12,-19l0 0zm-21 30c-27,-13 -51,-20 -65,-9 -16,12 8,43 22,58 4,5 11,7 18,6 -3,8 -2,15 5,22 7,6 14,7 22,5 -1,7 1,14 5,18 16,13 47,37 59,22 10,-14 5,-36 -7,-62 -10,-7 -19,-15 -28,-24l0 0c-12,-12 -22,-24 -31,-36z"/>
  </g>
 </g>
</svg>
