<?xml version="1.0" encoding="UTF-8"?>
<!DOCTYPE svg PUBLIC "-//W3C//DTD SVG 1.1//EN" "http://www.w3.org/Graphics/SVG/1.1/DTD/svg11.dtd">
<!-- Creator: CorelDRAW X8 -->
<svg xmlns="http://www.w3.org/2000/svg" xml:space="preserve" width="21.1667mm" height="21.1668mm" version="1.1" style="shape-rendering:geometricPrecision; text-rendering:geometricPrecision; image-rendering:optimizeQuality; fill-rule:evenodd; clip-rule:evenodd"
viewBox="0 0 355 355">
 <defs>
  <style type="text/css">
   <![CDATA[
    .fil0 {fill:none}
    .fil1 {fill:#2980B9}
   ]]>
  </style>
 </defs>
 <g id="Layer_x0020_1">
  <metadata id="CorelCorpID_0Corel-Layer"/>
  <g id="_1027156096">
   <polygon class="fil0" points="0,355 355,355 355,0 0,0 "/>
   <path class="fil1" d="M162 271c-1,-1 -3,-2 -4,-4 0,1 0,1 -1,2 2,0 3,1 5,2l0 0zm25 4c51,1 76,10 76,26 0,2 0,4 -1,5 15,3 27,12 27,17 0,18 -49,18 -107,18 -59,0 -105,0 -105,-18 0,-5 2,-9 7,-13 -1,-2 -2,-5 -2,-7 0,-9 11,-16 30,-21 -2,0 -3,-1 -4,-1 -1,0 -3,0 -3,0 -12,-2 -23,-5 -32,-9 -20,-10 -33,-26 -32,-55 0,-32 23,-49 45,-66 2,-2 4,-3 6,-4 0,-15 3,-31 10,-50 0,-2 2,-3 4,-2 2,0 3,2 2,4 -6,16 -8,29 -9,42 8,-7 15,-13 19,-21 0,-4 -1,-9 -3,-13 0,-2 1,-4 3,-5 2,0 4,1 4,3 1,1 1,3 1,5 3,-7 3,-15 2,-23 0,-2 1,-4 3,-4 2,0 4,1 4,3 2,14 0,26 -6,36 1,6 1,11 1,16 13,-9 20,-20 21,-31 1,-7 0,-13 -3,-19 -3,-7 -8,-12 -15,-16 -11,-7 -26,-11 -42,-7 -2,0 -4,-1 -4,-3 -1,-2 1,-4 3,-4 18,-4 35,0 47,8 7,5 13,11 17,18 4,8 5,16 4,24 -2,13 -9,25 -24,37 -2,1 -3,2 -4,3 -3,16 -10,27 -19,37 1,2 3,4 4,6 6,-7 14,-14 22,-21 9,-8 19,-16 29,-24 5,-24 5,-49 -13,-77 -1,-1 -1,-4 1,-5 1,-1 4,0 5,1 8,12 12,23 15,34 0,0 0,1 0,1 4,15 5,27 3,37l6 -4c28,-21 55,-42 70,-62 -1,-10 -3,-21 -7,-33 -1,-1 0,-3 2,-4 2,-1 4,0 5,2 2,9 5,18 6,26 8,-14 9,-28 -1,-41 -1,-1 -1,-4 1,-5 1,-1 4,-1 5,1 14,19 10,37 -4,56 1,9 1,17 0,24 12,-20 21,-41 21,-63 0,-2 2,-4 4,-4 2,0 3,2 3,4 0,30 -14,56 -32,82 -7,25 -24,44 -44,63 -4,6 -7,13 -10,19 25,-3 51,-5 70,-14 7,-17 9,-42 8,-79 -1,-1 1,-3 3,-3 2,0 4,1 4,3 1,33 -1,56 -6,73 13,-9 21,-22 21,-43 0,-2 1,-3 3,-3 2,0 4,1 4,3 0,28 -13,45 -31,54 -1,2 -2,3 -2,5 -10,18 -25,28 -44,36 -6,2 -12,4 -18,6 -9,3 -18,7 -26,11 -1,9 0,18 2,28l0 0zm-33 0l1 0c0,0 -1,0 -1,0l0 0zm-1 -13c-5,-7 -8,-14 -10,-22l0 0c-3,2 -5,5 -7,7 3,7 8,13 15,18 1,-1 2,-2 2,-3l0 0zm-7 14c1,-2 1,-4 2,-5 -8,-5 -13,-11 -17,-18 -3,2 -5,5 -7,8 7,5 14,10 22,15l0 0zm17 -24c5,-4 10,-7 15,-10 1,-13 4,-25 9,-36 -3,0 -6,0 -9,1 -9,8 -19,17 -28,26 0,2 0,3 0,5 5,4 9,9 13,14l0 0zm23 -14c7,-3 15,-6 23,-8 6,-2 11,-5 17,-7 17,-7 30,-15 39,-29 -20,7 -45,9 -70,11l0 0c-4,11 -8,22 -9,33l0 0zm-8 12c-4,2 -7,5 -10,7 4,5 8,10 11,15 -1,-8 -1,-15 -1,-22l0 0zm-81 8c0,-6 0,-11 1,-16 -1,-2 -2,-4 -4,-6 -1,8 0,15 3,22l0 0zm4 -25c4,-8 10,-14 18,-19 -3,-4 -5,-7 -8,-11 -6,8 -11,15 -14,23 1,3 2,5 4,7l0 0zm25 -22l0 0c0,-1 0,-1 0,-2 1,-4 3,-8 4,-12 4,-9 10,-15 17,-22 4,-5 8,-10 12,-15 0,-1 1,-2 1,-2 -8,6 -15,12 -22,18 -8,7 -16,14 -22,21 3,5 6,9 10,14l0 0zm8 -4c3,0 5,-1 7,-2 2,0 3,0 4,0 2,-9 5,-18 8,-27l-1 2c-6,6 -12,12 -15,20 -1,2 -2,5 -3,7l0 0zm19 -4c7,-1 15,-2 22,-3l4 -3c9,-8 17,-15 24,-22 8,-13 18,-26 27,-39 6,-7 11,-15 16,-22 3,-10 5,-21 5,-33 -17,19 -42,38 -67,58 -4,3 -8,6 -12,9 -1,6 -4,10 -6,15 -2,6 -4,11 -6,17 -3,8 -5,16 -7,23l0 0zm34 -4l3 -1c1,-1 2,-2 2,-3 -1,1 -3,2 -5,4l0 0zm-21 9c-5,1 -10,2 -15,3 -1,4 -2,8 -2,13 6,-6 12,-11 17,-16l0 0zm-23 4c-4,1 -7,2 -11,4 0,0 0,1 0,2 3,3 6,7 10,11 0,-6 0,-11 1,-17l0 0zm-19 8c-9,5 -15,11 -18,21 0,1 1,1 1,2 3,4 7,9 12,13 3,-3 5,-7 8,-10 -3,-8 -4,-17 -3,-26l0 0zm-20 31c0,6 0,13 2,21 3,-4 6,-7 8,-11 -3,-3 -7,-7 -10,-10l0 0zm-23 17c-8,-8 -13,-18 -13,-34 1,-16 9,-27 19,-37 1,-7 3,-14 7,-22 0,-1 1,-2 1,-3 -1,-5 -2,-11 -3,-17l-2 1c-20,16 -42,33 -42,61 -1,25 10,40 28,48 2,1 4,2 5,3l0 0zm15 -81c1,-1 3,-2 4,-3 -1,-1 -1,-2 -1,-3 -1,2 -2,4 -3,6l0 0zm9 -10c5,-6 9,-12 12,-21 -6,6 -10,11 -14,17 1,1 2,3 2,4l0 0zm15 -32c0,-5 0,-9 0,-15 -6,7 -13,14 -21,20 0,5 1,9 2,14 5,-7 11,-13 19,-19l0 0zm-17 45c-2,2 -3,4 -5,6 -2,1 -3,3 -5,4 0,4 0,8 1,12 0,1 0,2 0,3 3,-6 8,-12 13,-18 -1,-2 -3,-4 -4,-7l0 0zm-17 18c-6,8 -10,16 -11,26 0,17 7,27 18,33 -8,-14 -8,-28 -3,-41 -2,-5 -3,-9 -3,-13 -1,-2 -1,-3 -1,-5l0 0zm28 66c6,1 12,2 19,2 -5,-3 -9,-6 -13,-10 -2,3 -4,5 -6,8l0 0zm24 -39c-2,-3 -5,-5 -7,-8 0,5 1,9 2,13 1,-2 3,-3 5,-5z"/>
  </g>
 </g>
</svg>
