<?xml version="1.0" encoding="UTF-8"?>
<!DOCTYPE svg PUBLIC "-//W3C//DTD SVG 1.1//EN" "http://www.w3.org/Graphics/SVG/1.1/DTD/svg11.dtd">
<svg xmlns="http://www.w3.org/2000/svg" xml:space="preserve" width="21.1667mm" height="21.1666mm" version="1.1" style="shape-rendering:geometricPrecision; text-rendering:geometricPrecision; image-rendering:optimizeQuality; fill-rule:evenodd; clip-rule:evenodd"
viewBox="0 0 307 307"
 >
 <defs>
  <style type="text/css">
   <![CDATA[
    .fil0 {fill:none}
    .fil1 {fill:#2980B9}
   ]]>
  </style>
 </defs>
 <g id="Layer_x0020_1">
  <metadata id="CorelCorpID_0Corel-Layer"/>
  <g id="_801976592">
   <polygon class="fil0" points="0,307 307,307 307,0 0,0 "/>
   <path class="fil1" d="M59 137c12,-52 58,-86 111,-78 50,8 80,50 60,104 -13,37 -46,41 -68,39 -7,-1 -13,-3 -18,-5 -6,-3 -11,-6 -14,-9 -6,-7 -10,-15 -13,-24 -2,-9 -2,-19 0,-27 1,-1 1,-2 1,-2 3,-11 11,-20 21,-25 10,-6 22,-8 34,-5 0,0 1,0 1,0 11,3 18,9 22,16 4,8 4,18 2,28l0 0 0 0 0 0c-2,9 -8,15 -14,19 -7,4 -15,5 -22,3l0 0 -1 0 0 0c-7,-1 -12,-5 -15,-10 -2,-5 -3,-11 -2,-19 1,-1 1,-2 1,-3 2,-5 5,-8 9,-10 4,-1 9,-2 12,-1 1,0 1,0 2,0 3,2 6,4 8,6 1,3 2,6 1,9 0,0 0,0 0,1 -1,3 -3,6 -6,8 -2,1 -5,2 -7,1l0 0 0 0c0,0 0,0 -1,0 -2,0 -3,-1 -4,-2 -1,-2 -1,-4 -1,-6 0,0 1,-2 2,-2 1,-1 2,-1 3,-1 0,0 0,0 1,0l0 0c0,0 0,0 0,1 0,0 0,0 0,0l0 0 0 0c0,0 -1,1 -2,1 -1,1 -2,3 -1,4 1,2 3,2 4,1 3,-1 4,-3 4,-4l0 0c1,-2 1,-3 1,-4 -1,-1 -1,-2 -2,-3 0,0 -1,0 -1,0 -1,-1 -2,-2 -4,-2 -3,0 -5,1 -7,2 -2,2 -3,4 -4,6 0,4 0,7 2,10 2,2 4,4 8,5 0,0 0,0 0,0l0 0 0 0c5,1 9,0 13,-3 3,-2 6,-6 8,-11l0 -1c1,-5 0,-9 -2,-13 -3,-4 -6,-6 -11,-8 -1,0 -2,-1 -3,-1 -4,-1 -10,0 -15,2 -5,2 -10,6 -12,14 -1,1 -1,2 -1,3 -2,9 -1,17 2,23 4,6 10,11 19,13l0 0 0 0 0 0 0 0c9,2 19,1 27,-4 8,-5 14,-12 17,-22l0 0 0 -1 0 0 0 0c2,-11 2,-22 -3,-32 -5,-8 -12,-15 -25,-18 -1,-1 -2,-1 -2,-1 -13,-3 -27,-1 -38,5 -11,7 -20,17 -24,29 0,1 0,2 0,2 -3,10 -3,20 0,31 2,9 7,18 14,26 2,2 4,3 6,5 -15,8 -36,42 -46,32 -24,-23 -35,-57 -27,-92z"/>
  </g>
 </g>
</svg>
