<?xml version="1.0" encoding="UTF-8"?>
<!DOCTYPE svg PUBLIC "-//W3C//DTD SVG 1.1//EN" "http://www.w3.org/Graphics/SVG/1.1/DTD/svg11.dtd">
<!-- Creator: CorelDRAW X8 -->
<svg xmlns="http://www.w3.org/2000/svg" xml:space="preserve" width="21.1667mm" height="21.1667mm" version="1.1" style="shape-rendering:geometricPrecision; text-rendering:geometricPrecision; image-rendering:optimizeQuality; fill-rule:evenodd; clip-rule:evenodd"
viewBox="0 0 358 358"
 >
 <defs>
  <style type="text/css">
   <![CDATA[
    .fil0 {fill:none}
    .fil1 {fill:#2980B9}
   ]]>
  </style>
 </defs>
 <g id="Layer_x0020_1">
  <metadata id="CorelCorpID_0Corel-Layer"/>
  <g id="_801977264">
   <polygon class="fil0" points="0,358 358,358 358,0 0,0 "/>
   <path class="fil1" d="M193 312c0,0 1,0 1,0l0 1 0 4c0,4 1,8 3,12 2,6 21,4 29,5 5,1 14,6 10,8 0,0 -43,0 -47,0 -4,0 -14,3 -14,-3 1,-9 10,6 12,-17l-4 -54c-2,-2 -4,-5 -4,-7 0,-3 1,-6 3,-7l0 -5 -34 -2c-3,2 -9,2 -11,-2 -2,-5 2,-9 6,-12l15 -26c-9,0 -19,-1 -31,-1 -1,0 -1,-1 -1,-1 -4,5 -7,10 -9,14 -17,12 -11,23 -18,23 -3,0 -4,-13 -5,-15 -2,0 -5,6 -6,8 -2,4 0,12 -5,12 -9,0 -13,-19 -13,-25 0,-34 -5,-48 23,-68 4,-2 9,-7 16,-7 6,0 11,1 17,2 3,-1 5,-3 9,-5 4,-2 7,-5 12,-7 26,-14 47,-10 66,-4 9,-2 20,-10 20,-22 -1,-30 -11,-43 -9,-60 0,-9 5,-20 12,-28 4,-4 15,-7 21,-7 11,0 13,10 17,11 3,1 25,7 31,9 10,2 10,6 -2,5 -12,0 -34,1 -45,4 -3,0 -11,3 -12,5 -13,18 20,71 11,96 -4,10 -4,19 -12,26 -4,3 -8,6 -13,10 -5,4 -15,14 -21,17 -5,2 -10,4 -14,5 -1,11 -4,20 -6,25l-1 13 29 2c0,0 0,0 0,0 9,-1 19,10 18,16 -1,5 -7,12 -12,14 -6,3 -14,0 -10,-5 1,-2 6,-1 8,-2 2,-2 6,-6 6,-9 -2,-3 -8,-7 -11,-5 -4,3 2,5 0,8 -5,6 -9,-4 -7,-10l-22 -1 0 4c2,2 3,4 3,6 0,2 -1,4 -2,6l3 46zm-44 -75c0,1 0,2 0,2 0,0 1,1 1,1l33 2 1 -12c-3,-4 -4,-13 -4,-23 -1,0 -2,0 -3,0 -1,14 -4,23 -8,24 -3,0 -6,-7 -7,-16l-13 22zm84 -192c6,-3 6,-7 15,-11 7,-3 7,-2 4,-8 0,-2 -1,-3 -3,-2 -10,2 -16,12 -16,21z"/>
  </g>
 </g>
</svg>
