<?xml version="1.0" encoding="UTF-8"?>
<!DOCTYPE svg PUBLIC "-//W3C//DTD SVG 1.1//EN" "http://www.w3.org/Graphics/SVG/1.1/DTD/svg11.dtd">
<!-- Creator: CorelDRAW X8 -->
<svg xmlns="http://www.w3.org/2000/svg" xml:space="preserve" width="21.1667mm" height="21.1667mm" version="1.1" style="shape-rendering:geometricPrecision; text-rendering:geometricPrecision; image-rendering:optimizeQuality; fill-rule:evenodd; clip-rule:evenodd"
viewBox="0 0 775 775"
 xmlns:xlink="http://www.w3.org/1999/xlink">
 <defs>
  <style type="text/css">
   <![CDATA[
    .fil0 {fill:none}
    .fil1 {fill:#027381}
   ]]>
  </style>
 </defs>
 <g id="Layer_x0020_1">
  <metadata id="CorelCorpID_0Corel-Layer"/>
  <g id="_801970320">
   <polygon class="fil0" points="0,775 775,775 775,0 0,0 "/>
   <path class="fil1" d="M179 490c-4,5 -10,8 -17,8 -8,0 -15,-4 -19,-12 1,21 4,48 7,76 6,58 5,121 -1,154 -1,5 -5,7 -9,7 -5,-1 -7,-5 -7,-9 6,-32 8,-93 2,-151 -7,-67 -14,-129 5,-134 8,-2 22,-1 32,-2 16,0 22,16 23,42 1,28 -5,70 -10,112 -7,52 -6,106 -1,133 1,5 -2,9 -6,9 -4,1 -8,-2 -9,-6 -6,-29 -6,-84 1,-138 4,-32 8,-64 9,-89l0 0zm87 3c-3,-8 -5,-15 -8,-22 -32,-95 -66,-71 -136,-97 -2,3 -3,5 -5,7 -49,5 -56,40 -64,78 -1,6 -2,13 -4,20 -1,4 1,8 5,9 5,1 9,-1 10,-5 2,-7 3,-14 4,-21 7,-31 12,-59 46,-65 0,2 0,3 0,5 0,3 0,5 1,8 -16,24 -17,59 -19,99 -2,28 -3,59 -10,88 -1,4 2,9 6,10 4,1 8,-2 9,-6 7,-31 9,-62 10,-92 2,-38 4,-73 18,-93 9,-3 19,-4 31,-4 11,0 20,1 28,3 13,11 16,41 19,79 3,33 7,71 18,109 1,4 5,6 9,5 4,-1 7,-5 6,-9 -11,-37 -14,-74 -17,-106 -3,-33 -6,-61 -16,-79 20,11 27,33 37,62 2,7 5,15 8,23 1,4 6,6 10,4 4,-1 6,-6 4,-10l0 0zm19 -77l-2 -7c-15,-44 -19,-57 -57,-68 1,-3 1,-5 2,-8 -27,-14 -54,-32 -76,-52 -13,1 -20,9 -25,19 -3,-2 -6,-4 -9,-5 -10,-5 -21,-5 -31,-2 -9,2 -17,8 -25,15 -13,12 -24,29 -29,40 -2,4 0,9 4,11 4,1 8,0 10,-4 5,-10 14,-25 26,-36 6,-5 12,-10 19,-12 6,-1 13,-1 20,2 3,1 5,3 8,5 -5,18 -3,35 15,49 20,6 41,12 62,15 11,-4 18,-12 23,-22 32,8 36,19 48,58l2 7c2,4 6,6 10,5 4,-1 6,-6 5,-10l0 0zm38 -53c1,4 -1,8 -5,9 -5,1 -9,-2 -10,-6 -5,-24 -10,-37 -19,-45 -8,-8 -19,-12 -37,-19 -6,7 -14,13 -22,15 -24,-13 -49,-31 -70,-50 -3,-13 1,-25 10,-35 -2,-8 -5,-15 -8,-21 -5,-9 -12,-15 -20,-19 -7,-3 -15,-4 -23,-3 -5,1 -10,3 -15,5 -3,2 -8,1 -10,-3 -2,-3 -1,-8 3,-10 6,-4 13,-6 20,-7 10,-1 21,0 32,4 10,5 19,13 27,25 2,5 5,10 7,16 7,-6 15,-10 25,-8 14,28 33,56 55,78l-1 1c17,6 29,11 38,20 11,10 17,25 23,53l0 0zm28 -17c-1,5 -4,8 -9,8 -4,-1 -7,-4 -7,-9 2,-24 1,-38 -5,-49 -5,-9 -16,-17 -31,-28l-1 0c-10,5 -20,7 -29,5 -18,-19 -33,-42 -45,-66 0,-18 11,-29 26,-36 2,-1 3,-2 4,-2 1,-8 1,-15 1,-22 -2,-11 -6,-19 -11,-25 -6,-6 -13,-10 -20,-12 -6,-1 -11,-2 -16,-1 -4,0 -8,-3 -8,-7 -1,-4 2,-8 6,-9 7,0 15,0 22,2 10,3 19,8 27,17 8,8 13,19 15,33 1,6 1,12 0,19 6,-1 12,-1 18,2 4,31 13,64 26,92 0,0 -1,1 -1,1 14,11 24,19 31,30 7,13 9,30 7,57l0 0zm37 -6c7,-27 8,-44 3,-58 -4,-12 -12,-21 -24,-33 1,-30 8,-62 17,-90 -6,-9 -14,-13 -24,-14 3,-6 5,-11 6,-17 3,-14 2,-26 -2,-36 -5,-11 -12,-19 -20,-25 -6,-5 -13,-8 -20,-9 -4,-1 -8,1 -9,5 -1,5 2,9 6,10 4,1 9,3 14,6 6,5 11,11 14,18 4,8 5,17 2,28 -2,6 -4,13 -9,20 -17,2 -31,9 -37,27 4,26 12,53 22,77 7,3 15,4 23,4 14,14 23,24 26,34 4,11 3,25 -3,49 -1,4 2,9 6,10 4,1 8,-2 9,-6l0 0zm23 14c-2,3 -7,4 -11,1 -3,-2 -4,-7 -1,-10 15,-20 21,-33 22,-44 0,-12 -4,-24 -12,-42l0 0c-11,-4 -20,-9 -26,-17l0 0c1,-21 6,-47 15,-75l0 0 0 0 0 0 0 0c0,-2 1,-5 2,-7 10,-8 23,-9 35,-6 7,-6 12,-11 15,-16 6,-9 9,-18 8,-26 0,-9 -3,-16 -7,-22 -3,-5 -7,-9 -11,-12 -3,-2 -4,-7 -2,-10 3,-4 7,-5 11,-2 6,3 11,9 15,15 6,8 10,19 10,30 0,11 -3,23 -11,35 -3,5 -6,9 -11,13 8,4 15,9 19,18 -18,24 -35,52 -46,80 7,18 12,31 11,44 -1,16 -8,30 -25,53l0 0zm14 17c23,-15 35,-27 41,-41 4,-11 5,-22 4,-38 1,1 2,2 4,2 19,-24 46,-45 72,-62 1,-8 -3,-15 -8,-21 6,-2 11,-5 16,-8 12,-8 19,-18 23,-29 4,-10 5,-21 3,-31 -2,-8 -5,-15 -9,-20 -2,-4 -7,-5 -10,-2 -4,2 -5,7 -2,10 2,4 4,9 5,15 2,7 2,15 -1,23 -3,8 -9,15 -18,21 -5,4 -12,7 -20,9 -14,-11 -30,-16 -48,-5 -14,21 -27,44 -36,66l0 0c2,8 7,15 13,21 1,19 2,33 -3,43 -4,11 -14,21 -34,35 -4,2 -5,7 -2,10 2,4 7,5 10,2l0 0zm9 27c27,-5 42,-11 53,-21 9,-9 14,-20 21,-36 27,-15 59,-26 90,-33 3,-9 1,-18 -4,-27 6,-1 12,-1 17,-3 14,-3 24,-10 32,-19 7,-8 11,-19 12,-29 1,-7 1,-15 -1,-21 -1,-4 -5,-7 -9,-6 -4,1 -7,5 -6,9 2,5 2,11 1,16 -1,7 -4,15 -9,21 -6,7 -13,12 -24,14 -6,2 -14,3 -22,2 -9,-11 -20,-18 -37,-16 -21,14 -43,32 -59,51 -1,9 2,18 7,27l0 0c-7,19 -11,31 -19,39 -9,8 -22,13 -46,17 -4,1 -7,5 -6,9 1,5 5,7 9,6l0 0zm-2 24c28,4 44,4 58,-3 13,-5 22,-16 36,-32 32,-1 66,1 97,9 3,-6 4,-13 4,-20 5,1 9,3 13,3 15,2 27,0 37,-6 10,-5 17,-13 23,-22 3,-6 6,-14 7,-20 0,-5 -3,-8 -7,-9 -4,-1 -8,2 -9,7 0,4 -2,10 -5,14 -4,7 -9,13 -16,17 -8,3 -17,5 -27,4 -6,-1 -12,-3 -18,-5 -3,-17 -13,-30 -36,-33 -26,7 -49,16 -67,25 -3,7 -4,14 -4,22 0,0 -1,0 -1,1 -14,16 -23,26 -34,31 -10,5 -24,5 -49,2 -4,-1 -8,2 -8,6 -1,4 2,8 6,9l0 0zm112 82c-26,18 -51,22 -75,26 -40,7 -79,13 -125,100 -2,3 -7,5 -11,3 -3,-2 -5,-7 -3,-11 50,-93 92,-100 137,-107 20,-3 41,-7 64,-20 -17,-15 -30,-38 -28,-56 3,-15 9,-28 23,-36l0 0c29,-2 61,0 90,7 17,11 21,28 19,46 -3,20 -23,40 -46,49 17,22 35,33 54,43 39,23 76,45 89,150 1,4 -3,8 -7,8 -4,1 -8,-2 -8,-7 -12,-97 -46,-117 -82,-137 -21,-13 -43,-25 -61,-52 -5,1 -9,1 -14,0 -5,-1 -10,-3 -16,-6z"/>
  </g>
 </g>
</svg>
