<?xml version="1.0" encoding="UTF-8"?>
<!DOCTYPE svg PUBLIC "-//W3C//DTD SVG 1.1//EN" "http://www.w3.org/Graphics/SVG/1.1/DTD/svg11.dtd">
<!-- Creator: CorelDRAW X8 -->
<svg xmlns="http://www.w3.org/2000/svg" xml:space="preserve" width="21.1667mm" height="21.1667mm" version="1.1" style="shape-rendering:geometricPrecision; text-rendering:geometricPrecision; image-rendering:optimizeQuality; fill-rule:evenodd; clip-rule:evenodd"
viewBox="0 0 250 250"
 >
 <defs>
  <style type="text/css">
   <![CDATA[
    .fil0 {fill:none}
    .fil1 {fill:#2980B9}
   ]]>
  </style>
 </defs>
 <g id="Layer_x0020_1">
  <metadata id="CorelCorpID_0Corel-Layer"/>
  <g id="_801961232">
   <polygon class="fil0" points="0,250 250,250 250,0 0,0 "/>
   <path class="fil1" d="M112 232c0,1 -1,1 -1,1l-1 0c-1,1 -2,0 -3,-1 -2,-6 -4,-11 -5,-16 0,0 0,-1 0,-1 -8,-23 -16,-33 -23,-41 -2,-2 -5,-5 -8,-7 0,0 -1,0 -1,0 -5,1 -9,-1 -10,-5 -1,-3 1,-5 3,-7 -5,-1 -8,-2 -11,-3 -1,0 0,1 -2,0 -4,-1 -7,-5 -5,-9 0,-1 0,-2 0,-2 -5,-3 -8,-6 -11,-8 0,0 -1,-1 -2,-2 -3,-2 -4,-5 -3,-8 -2,-1 -3,-2 -5,-3 -4,-3 -8,-6 -12,-10 -3,-3 -3,-7 0,-10 3,-3 8,-4 11,-1 1,1 2,3 4,4 -1,-2 -2,-4 -4,-6 -2,-4 -1,-8 3,-11 3,-2 8,-1 10,3 3,4 5,9 7,13 2,4 3,8 3,12 1,1 1,1 1,2 4,-1 8,0 9,4 2,3 1,2 1,2 2,3 3,6 5,10 1,-1 3,-2 4,-2 4,-1 8,1 9,5 1,2 0,1 1,3 1,5 3,11 4,21 0,2 1,6 0,8 2,2 1,1 3,4 5,6 11,12 16,24 0,-5 0,-11 0,-15 1,-11 1,-12 -7,-22 -6,-7 -9,-12 -12,-17 -1,-2 -1,-2 -1,-2 -2,-3 -2,-6 0,-9l0 0c-8,-6 -13,-12 -17,-18 -4,-5 -7,-10 -9,-15 -2,-3 -1,-8 3,-10 4,-2 8,0 10,4 2,4 4,8 8,12 1,2 3,4 5,7l0 -1c0,-1 -1,-2 0,-3 0,-4 -3,-8 -6,-11 -3,-3 -6,-6 -7,-11 -2,-4 1,-8 5,-9 2,-1 5,0 7,1 0,-2 2,-4 5,-4 4,-1 8,2 9,6 2,9 2,18 2,26 0,4 0,9 -1,12 1,1 1,2 2,3 0,1 0,2 0,3l0 0c2,5 3,11 4,21 2,2 3,4 5,6 1,2 0,27 0,31 0,12 0,27 5,44 -2,-20 -1,-34 1,-46 0,-5 0,-11 0,-16 -2,-7 -4,-13 -6,-19 0,0 0,-1 0,-1 -4,-9 -5,-15 -6,-21l0 -2c-1,-4 2,-8 5,-9 0,-4 -1,-7 -2,-10l0 -3c-1,-4 2,-8 6,-8 0,0 0,0 0,0 0,-3 0,-5 -1,-7 -1,-3 -2,-7 -3,-10 -6,-15 -7,-25 -8,-33 0,-1 0,-1 0,-3 0,-4 3,-7 7,-8 4,0 8,3 8,7l0 3c1,7 1,14 6,25l0 -1c0,-1 0,-2 0,-3 -3,-16 -1,-26 1,-35l0 -2c1,-4 5,-7 9,-6 4,1 7,5 6,9 0,1 0,2 0,2 -1,4 -2,9 -2,14 2,-5 4,-9 5,-14l0 0 0 0c1,-1 0,-1 1,-2 1,-4 5,-6 9,-5 4,2 6,6 5,10 -1,2 -1,2 -1,2l0 0c-3,9 -6,20 -18,34 0,1 -1,1 -1,1 0,2 -1,5 -1,7 3,2 4,7 3,10 -1,2 -1,1 -1,3 0,0 -1,0 -1,0l0 1c0,0 0,0 0,0 4,2 5,6 3,10 -1,3 -1,2 -1,2 -1,2 -2,4 -4,7 2,2 2,5 1,8 -2,2 -1,2 -2,2 -1,3 -3,6 -6,10 3,0 6,1 8,2 0,-5 1,-9 1,-12 0,-2 0,-3 0,-3 1,-4 4,-7 9,-7 0,0 1,1 1,1 1,-4 1,-7 1,-11 1,0 0,2 1,-2 0,-4 4,-7 8,-7l0 0c1,0 1,-1 1,-2 0,-1 0,-2 0,-3 -3,-18 0,-29 2,-38 0,-2 0,-2 0,-3 1,-4 5,-6 9,-5 3,0 6,3 6,7 2,-4 6,-5 9,-4 4,1 6,6 4,10 0,2 -1,4 -2,7 -2,8 -4,17 -12,28 0,0 0,1 0,2l-1 2c8,-6 12,-11 16,-16 0,-1 0,-1 1,-2 3,-4 7,-4 11,-2 3,3 4,8 1,11l-1 2c-6,7 -12,15 -25,23 0,2 -1,4 -2,5 -1,1 -1,1 -2,2 -2,2 -3,4 -5,5 1,3 0,6 -2,8 -1,1 -1,1 -2,2 -3,3 -6,7 -12,11 0,4 -3,7 -7,7l0 0 0 0c0,4 -3,7 -8,8 0,0 -1,0 -1,0 -3,2 -5,4 -6,6 -4,6 -6,13 -8,21 0,1 0,2 0,3 0,1 0,1 0,1 -1,10 -1,22 0,38 3,-5 6,-11 10,-17 1,-3 3,-6 5,-9 3,-9 5,-16 6,-21 1,-4 2,-9 3,-12 1,-6 5,-10 9,-9 2,0 3,1 5,2 0,-3 2,-5 4,-6 3,-7 5,-11 7,-15 1,-2 1,-1 2,-2 1,-3 4,-4 6,-4 2,-3 3,-5 4,-7 1,-2 0,-1 1,-2 2,-4 6,-5 9,-4 4,-5 7,-9 10,-12 0,-1 1,-1 1,-2 2,-2 5,-3 8,-3 2,-2 3,-4 5,-5 0,-1 0,-1 1,-2 3,-4 8,-4 11,-1 3,2 3,7 1,10l0 0 3 -1c4,-1 8,2 9,6 1,4 -2,8 -6,9 -1,0 -1,0 -2,1 -4,0 -7,1 -11,2 1,0 1,1 1,1 1,5 -2,9 -6,9l-2 1c-2,0 -4,1 -6,1 1,3 0,7 -4,9 -3,1 -2,1 -2,1 -3,1 -6,3 -10,4 1,1 1,1 1,2 2,3 0,8 -3,10 -2,0 -2,0 -3,1 -3,1 -6,2 -10,4l0 0c0,1 1,1 2,2 0,-1 1,-1 2,-1 8,-1 14,-2 19,-3 0,0 -1,0 2,-1 4,-1 8,1 9,5 0,0 1,0 2,0 3,-3 7,-4 11,-5 5,-2 10,-3 15,-3 4,-1 8,2 8,6 1,4 -2,8 -6,8 -3,1 -5,1 -7,2 2,0 3,0 5,0 4,1 7,5 7,9 -1,4 -5,7 -9,6 -5,0 -10,-1 -14,-3 -2,0 -4,-1 -6,-2 -2,3 -5,4 -8,4 -1,-1 -1,-1 -3,-1 -4,-1 -8,-2 -13,-4 -1,1 -1,1 -1,2 -3,3 -7,4 -11,2 0,-1 0,-1 -1,-2 -2,-1 -5,-3 -8,-5 -1,2 -4,2 -7,2 -13,2 -15,3 -19,9 0,0 -1,0 -1,1 -4,6 -8,13 -11,19 -6,10 -10,19 -16,24l0 0zm46 -67l0 0 0 0 0 0 0 0z"/>
  </g>
 </g>
</svg>
