<?xml version="1.0" encoding="UTF-8"?>
<!DOCTYPE svg PUBLIC "-//W3C//DTD SVG 1.1//EN" "http://www.w3.org/Graphics/SVG/1.1/DTD/svg11.dtd">
<!-- Creator: CorelDRAW X8 -->
<svg xmlns="http://www.w3.org/2000/svg" xml:space="preserve" width="21.1667mm" height="21.1667mm" version="1.1" style="shape-rendering:geometricPrecision; text-rendering:geometricPrecision; image-rendering:optimizeQuality; fill-rule:evenodd; clip-rule:evenodd"
viewBox="0 0 245 245"
 >
 <defs>
  <style type="text/css">
   <![CDATA[
    .fil0 {fill:none}
    .fil1 {fill:#2980B9}
   ]]>
  </style>
 </defs>
 <g id="Layer_x0020_1">
  <metadata id="CorelCorpID_0Corel-Layer"/>
  <g id="_801967280">
   <polygon class="fil0" points="0,245 245,245 245,0 0,0 "/>
   <path class="fil1" d="M122 33c21,0 40,4 57,12 17,8 31,19 41,33l1 0c4,7 10,15 10,21 -1,4 -4,7 -12,7l0 0 -74 0c0,3 0,6 0,10 5,2 9,4 13,7 4,3 8,6 10,10l1 1c2,3 5,7 5,10 -1,3 -2,5 -7,5l0 0 -22 0 0 1c1,6 2,11 4,17 1,5 3,10 3,14 0,12 -3,21 -8,27 -5,6 -12,9 -21,9 -6,0 -12,-1 -17,-2 -6,-2 -11,-5 -14,-9 -4,-4 -6,-9 -6,-16 0,-4 1,-8 2,-13 1,-4 3,-7 5,-11 2,-4 5,-9 6,-17l-22 0c-6,0 -8,-3 -7,-7 1,-2 3,-5 5,-9 4,-4 8,-8 13,-11 4,-2 9,-5 14,-7 0,-3 0,-6 0,-9l-76 0c-11,0 -14,-4 -13,-10 1,-5 6,-12 11,-18 10,-14 25,-25 42,-33 17,-8 36,-12 56,-12l0 0zm19 73l-34 0c0,3 0,5 0,8 2,0 5,0 7,1 3,0 5,0 8,0 2,0 3,0 4,0 5,0 11,0 14,0 0,-3 1,-6 1,-9l0 0zm0 43l-37 0c-1,9 -4,14 -7,20 -2,3 -3,6 -4,10 -2,4 -2,8 -2,11 0,5 1,10 4,13 3,3 8,6 12,7 5,2 11,2 16,2 8,0 14,-2 18,-7 4,-5 6,-13 6,-24 0,-4 -1,-8 -3,-13 -1,-6 -3,-11 -3,-18l0 -1zm-14 -30c-3,0 -5,0 -5,0 -3,0 -5,0 -8,0 -4,0 -8,0 -9,0 -5,2 -10,4 -15,7 -4,3 -8,6 -11,10 -2,3 -4,6 -4,7 -1,1 0,1 2,1l90 0 0 0c1,0 2,0 2,0 0,-2 -2,-5 -4,-8l0 0c-3,-3 -6,-7 -10,-10 -4,-2 -8,-4 -13,-6 -2,-1 -9,-1 -15,-1z"/>
  </g>
 </g>
</svg>
