<?xml version="1.0" encoding="UTF-8"?>
<!DOCTYPE svg PUBLIC "-//W3C//DTD SVG 1.1//EN" "http://www.w3.org/Graphics/SVG/1.1/DTD/svg11.dtd">
<!-- Creator: CorelDRAW X8 -->
<svg xmlns="http://www.w3.org/2000/svg" xml:space="preserve" width="21.1667mm" height="21.1667mm" version="1.1" style="shape-rendering:geometricPrecision; text-rendering:geometricPrecision; image-rendering:optimizeQuality; fill-rule:evenodd; clip-rule:evenodd"
viewBox="0 0 425 425"
 >
 <defs>
  <style type="text/css">
   <![CDATA[
    .fil0 {fill:none}
    .fil1 {fill:#027381}
   ]]>
  </style>
 </defs>
 <g id="Layer_x0020_1">
  <metadata id="CorelCorpID_0Corel-Layer"/>
  <g id="_801964144">
   <polygon class="fil0" points="0,425 425,425 425,0 0,0 "/>
   <path class="fil1" d="M187 89c1,-11 5,-33 16,-49 10,-14 8,-21 10,-23 0,0 2,0 2,0 3,2 0,9 10,23 11,16 16,38 16,49 2,23 -9,40 -19,47 -1,1 -2,3 -4,4l0 39 6 -2c0,-2 1,-4 1,-6 1,-12 11,-31 33,-44 10,-6 32,-15 52,-15 19,0 24,-6 27,-5 0,0 1,2 1,2 0,3 -8,5 -16,22 -8,18 -25,35 -35,42 -20,15 -42,16 -53,12 -1,0 -3,-1 -4,-1l-12 4 0 61 12 -1c1,-2 2,-5 3,-7 5,-14 22,-32 51,-39 13,-3 41,-6 64,0 21,6 28,1 31,3 1,0 2,2 1,3 -1,3 -11,3 -25,19 -15,18 -40,31 -53,36 -28,11 -52,5 -64,-4 -1,-1 -3,-2 -5,-3l-15 1 0 56 10 -1c1,-1 2,-3 3,-4 8,-11 26,-22 51,-20 12,0 35,5 52,17 15,10 22,8 24,10 1,1 1,3 0,3 -2,2 -9,0 -24,10 -17,12 -40,17 -52,18 -25,1 -43,-10 -51,-21 -1,-1 -2,-3 -3,-5l-10 1 0 81c0,3 -2,4 -4,4 -2,0 -4,-1 -4,-4l0 -81 -9 0c-1,1 -2,3 -3,4 -8,11 -26,22 -51,21 -11,-1 -35,-6 -51,-18 -16,-10 -23,-8 -25,-10 0,0 0,-2 0,-3 2,-2 9,0 25,-10 16,-12 40,-17 51,-17 25,-2 43,9 51,20 1,1 2,3 3,4l9 1 0 -56 -16 -1c-2,1 -4,2 -6,3 -11,9 -36,15 -63,4 -14,-5 -39,-18 -54,-36 -14,-16 -23,-16 -24,-19 -1,-1 0,-3 1,-3 2,-2 10,3 31,-3 22,-6 50,-3 64,0 29,7 46,25 51,39 1,2 2,5 3,7l13 1 0 -61 -11 -4c-2,0 -3,1 -4,1 -12,4 -33,3 -54,-12 -9,-7 -27,-24 -35,-42 -7,-17 -15,-19 -15,-22 -1,0 0,-2 1,-2 3,-1 8,5 26,5 20,0 43,9 53,15 22,13 32,32 33,44 0,2 0,4 0,6l6 2 0 -40c-2,-1 -3,-2 -4,-3 -10,-7 -21,-24 -19,-47z"/>
  </g>
 </g>
</svg>
