<?xml version="1.0" encoding="UTF-8"?>
<!DOCTYPE svg PUBLIC "-//W3C//DTD SVG 1.1//EN" "http://www.w3.org/Graphics/SVG/1.1/DTD/svg11.dtd">
<!-- Creator: CorelDRAW X8 -->
<svg xmlns="http://www.w3.org/2000/svg" xml:space="preserve" width="21.1667mm" height="21.1667mm" version="1.1" style="shape-rendering:geometricPrecision; text-rendering:geometricPrecision; image-rendering:optimizeQuality; fill-rule:evenodd; clip-rule:evenodd"
viewBox="0 0 6492 6492"
 >
 <defs>
  <style type="text/css">
   <![CDATA[
    .fil0 {fill:none}
    .fil1 {fill:#2980B9}
   ]]>
  </style>
 </defs>
 <g id="Layer_x0020_1">
  <metadata id="CorelCorpID_0Corel-Layer"/>
  <g id="_801970256">
   <polygon class="fil0" points="0,6492 6492,6492 6492,0 0,0 "/>
   <path class="fil1" d="M4044 6151c-29,61 -41,72 -140,-34 -32,-34 -43,-66 -59,-107 -68,-173 -36,-256 -59,-446 -21,-182 22,-477 -14,-669 -45,-236 -4,-524 -141,-731 -57,-87 -72,-112 -197,-129 -95,-14 -173,-8 -278,-14 -253,-15 -553,-33 -642,109 -46,73 -177,366 -199,436 -63,196 58,679 106,910 34,164 154,513 248,665 49,79 -94,70 -146,35 -231,-153 -131,-97 -202,-267l1 0c-40,-97 -36,-198 -88,-322 -52,-122 -91,-469 -151,-589 -59,-117 -90,-216 -144,-336 -96,62 -160,187 -160,299 0,284 99,696 228,945 25,48 50,96 71,145 50,115 93,211 -107,166 -105,-25 -201,-215 -263,-289 -61,-74 -91,-418 -127,-536 -49,-159 -146,-543 -143,-673 4,-131 217,-469 217,-583 0,-126 -173,-375 -237,-524 -77,-180 -140,-267 -327,-153 -36,23 -42,40 -51,32 -21,-19 -3,-138 24,-205 63,-153 69,-421 123,-483 82,-95 220,-118 320,-203 78,-67 362,-208 466,-224 279,-43 407,81 619,81 84,0 784,-4 932,-67 167,-71 110,4 416,-178 96,-57 189,-119 218,-151 119,-127 92,-499 92,-712 0,-53 -90,-333 -112,-369 -91,-147 -305,-33 -454,-300 -57,-102 -151,-248 -151,-356 0,-38 122,-66 255,-15 100,40 246,118 315,203 270,334 274,9 643,131 238,80 373,-224 654,-334 133,-51 259,-22 255,15 -30,251 -247,549 -432,560 -128,8 -157,54 -209,175 -37,87 -66,158 -91,256 -48,192 -9,764 -9,1059 0,92 20,161 6,251 -19,118 3,260 -27,373 -35,127 -113,396 -187,513 -142,224 -206,447 -219,707l-19 155c-39,153 23,427 7,606 -25,274 11,621 8,899 -1,84 17,267 -12,274 -55,13 -134,-44 -164,-74 -118,-119 -39,-436 -64,-616 -20,-140 -9,-680 -55,-812l-107 -309c-67,275 -47,686 -42,996 4,192 -8,231 8,442 11,155 40,281 -3,372z"/>
  </g>
 </g>
</svg>
