<?xml version="1.0" encoding="UTF-8"?>
<svg xmlns="http://www.w3.org/2000/svg" xmlns:xlink="http://www.w3.org/1999/xlink" width="80px" height="80px" viewBox="0 0 80 80" version="1.1">
<g id="surface1">
<path style=" stroke:none;fill-rule:nonzero;fill:rgb(12.156863%,45.490196%,67.843137%);fill-opacity:1;" d="M 35.199219 11.199219 C 25.199219 12.585938 15.867188 17.921875 10.160156 25.519531 C 2.453125 35.8125 0.398438 48.828125 4.558594 60.71875 C 5.601562 63.652344 7.601562 67.546875 8.691406 68.71875 L 9.519531 69.601562 L 69.8125 69.601562 L 70.585938 68.960938 C 72.320312 67.492188 75.386719 60.347656 76.425781 55.332031 C 77.121094 51.972656 77.121094 44.535156 76.425781 41.332031 C 74.960938 34.507812 72.054688 28.535156 67.785156 23.625 C 62.691406 17.761719 55.171875 13.386719 47.332031 11.734375 C 44.292969 11.09375 37.945312 10.828125 35.199219 11.199219 Z M 42.746094 17.226562 C 46.054688 19.519531 45.734375 24.398438 42.132812 26.347656 C 39.601562 27.679688 36.398438 26.640625 34.988281 24 C 34.480469 23.039062 34.375 22.507812 34.453125 21.253906 C 34.746094 17.121094 39.359375 14.878906 42.746094 17.226562 Z M 24.078125 25.226562 C 27.386719 27.519531 27.066406 32.398438 23.464844 34.347656 C 20.933594 35.679688 17.734375 34.640625 16.320312 32 C 15.8125 31.039062 15.707031 30.507812 15.785156 29.253906 C 16.078125 25.121094 20.691406 22.878906 24.078125 25.226562 Z M 61.414062 25.226562 C 64.71875 27.519531 64.398438 32.398438 60.800781 34.347656 C 58.265625 35.679688 55.066406 34.640625 53.652344 32 C 53.148438 31.039062 53.039062 30.507812 53.121094 29.253906 C 53.414062 25.121094 58.027344 22.878906 61.414062 25.226562 Z M 47.171875 30.773438 C 47.921875 31.171875 48.535156 32.1875 48.535156 33.011719 C 48.535156 33.253906 47.574219 37.09375 46.398438 41.546875 L 44.265625 49.601562 L 45.226562 50.453125 C 45.734375 50.90625 46.480469 51.894531 46.878906 52.640625 C 47.492188 53.8125 47.601562 54.320312 47.601562 56.265625 C 47.601562 58.214844 47.492188 58.71875 46.878906 59.894531 C 46.078125 61.414062 44.828125 62.640625 43.121094 63.519531 C 42.214844 64.027344 41.574219 64.132812 39.734375 64.132812 C 37.785156 64.132812 37.28125 64.027344 36.105469 63.414062 C 33.652344 62.132812 32.027344 59.679688 31.8125 56.933594 C 31.492188 53.039062 33.839844 49.679688 37.601562 48.613281 L 39.09375 48.214844 L 41.066406 40.691406 C 42.132812 36.585938 43.199219 32.746094 43.414062 32.1875 C 44.027344 30.585938 45.625 30 47.171875 30.773438 Z M 16.078125 43.894531 C 19.386719 46.1875 19.066406 51.066406 15.464844 53.011719 C 12.933594 54.347656 9.734375 53.308594 8.320312 50.667969 C 7.8125 49.707031 7.707031 49.171875 7.785156 47.921875 C 8.078125 43.785156 12.691406 41.546875 16.078125 43.894531 Z M 69.414062 43.894531 C 72.71875 46.1875 72.398438 51.066406 68.800781 53.011719 C 66.265625 54.347656 63.066406 53.308594 61.652344 50.667969 C 61.148438 49.707031 61.039062 49.171875 61.121094 47.921875 C 61.414062 43.785156 66.027344 41.546875 69.414062 43.894531 Z M 69.414062 43.894531 "/>
</g>
</svg>
