<svg xmlns="http://www.w3.org/2000/svg" width="24" height="24" viewBox="0 0 24 24">
  <path d="M19,8 C18.4477153,8 18,7.55228475 18,7 L18,6.92895948 L5.99666253,5.08229218 C5.95481263,5.59608198 5.52457637,6 5,6 L5,18 C5.52457637,18 5.95481263,18.403918 5.99666253,18.9177078 L18,17.0710405 L18,17 C18,16.4477153 18.4477153,16 19,16 L19,8 Z M20,8 L20,16 C20.5522847,16 21,16.4477153 21,17 L21,18 C21,18.5522847 20.5522847,19 20,19 L19,19 C18.4754236,19 18.0451874,18.596082 18.0033375,18.0822922 L6,19.9289595 L6,20 C6,20.5522847 5.55228475,21 5,21 L4,21 C3.44771525,21 3,20.5522847 3,20 L3,19 C3,18.4477153 3.44771525,18 4,18 L4,6 C3.44771525,6 3,5.55228475 3,5 L3,4 C3,3.44771525 3.44771525,3 4,3 L5,3 C5.55228475,3 6,3.44771525 6,4 L6,4.07104052 L18.0033375,5.91770782 C18.0451874,5.40391802 18.4754236,5 19,5 L20,5 C20.5522847,5 21,5.44771525 21,6 L21,7 C21,7.55228475 20.5522847,8 20,8 Z M5,19.4910004 L5,19 L4,19 L4,20 L5,20 L5,19.5077646 C4.99990594,19.5021617 4.99990637,19.4965736 5,19.4910022 L5,19.4910004 Z M19,17.5089996 L19,18 L20,18 L20,17 L19,17 L19,17.4922354 C19.0000941,17.4978383 19.0000936,17.5034264 19,17.5089978 L19,17.5089996 Z M5,4.49223544 L5,4 L4,4 L4,5 L5,5 L5,4.5089996 C4.99990637,4.50342635 4.99990594,4.49783831 5,4.49223545 L5,4.49223544 Z M19,6.50776456 L19,7 L20,7 L20,6 L19,6 L19,6.4910004 C19.0000936,6.49657365 19.0000941,6.50216169 19,6.50776455 L19,6.50776456 Z"/>
</svg>
